<svg id="kity_svg_6" xmlns="http://www.w3.org/2000/svg" xmlns:xlink="http://www.w3.org/1999/xlink" version="1.1" width="1084" height="1142" style="background: rgb(251, 251, 251); visibility: visible;" viewBox="0 0 1084 1142"><defs id="kity_defs_7"><linearGradient id="kity_linearGradient_17" x1="0" y1="0" x2="0" y2="1"><stop id="kity_stop_18" offset="0" stop-color="rgb(255, 255, 255)"></stop><stop id="kity_stop_19" offset="1" stop-color="rgb(204, 204, 204)"></stop></linearGradient><marker id="kity_marker_4" orient="auto" refX="6" refY="0" viewBox="-7 -7 14 14" markerWidth="7" markerHeight="7" markerUnits="userSpaceOnUse"><path id="kity_path_5" fill="rgb(115, 191, 118)" stroke="none" d="M6,0A6,6,0,1,1,-6,0A6,6,0,1,1,6,0"></path></marker><marker id="kity_marker_2" orient="auto" refX="6" refY="0" viewBox="-7 -7 14 14" markerWidth="7" markerHeight="7" markerUnits="userSpaceOnUse"><path id="kity_path_3" fill="rgb(115, 191, 118)" stroke="none" d="M6,0A6,6,0,1,1,-6,0A6,6,0,1,1,6,0"></path></marker></defs><g id="kity_g_8"><g id="minder1" text-rendering="geometricPrecision"><g id="minder_connect_group1"><path id="kity_path_55" fill="none" stroke="rgb(115, 191, 118)" stroke-width="1" d="M101.5,833.5A199,276,0,0,1,300.5,557.5"></path><path id="kity_path_63" fill="none" stroke="rgb(115, 191, 118)" stroke-width="1" d="M101.5,833.5A199,210,0,0,0,300.5,1043.5"></path><path id="kity_path_79" fill="none" stroke="rgb(115, 191, 118)" stroke-width="1" d="M101.5,833.5A199,276,0,0,0,300.5,1109.5"></path><path id="kity_path_87" fill="none" stroke="rgb(115, 191, 118)" stroke-width="1" d="M371.5,557.5C391.5,557.5,391.5,138.5,411.5,138.5"></path><path id="kity_path_95" fill="none" stroke="rgb(115, 191, 118)" stroke-width="1" d="M371.5,557.5C391.5,557.5,391.5,530,411.5,530"></path><path id="kity_path_103" fill="none" stroke="rgb(115, 191, 118)" stroke-width="1" d="M371.5,557.5C391.5,557.5,391.5,686,411.5,686"></path><path id="kity_path_119" fill="none" stroke="rgb(115, 191, 118)" stroke-width="1" d="M371.5,557.5C391.5,557.5,391.5,842.5,411.5,842.5"></path><path id="kity_path_135" fill="none" stroke="rgb(115, 191, 118)" stroke-width="1" d="M505.5,138.5C525.5,138.5,525.5,85.5,545.5,85.5"></path><path id="kity_path_143" fill="none" stroke="rgb(115, 191, 118)" stroke-width="1" d="M614.5,85.5C634.5,85.5,634.5,31.5,654.5,31.5"></path><path id="kity_path_151" fill="none" stroke="rgb(115, 191, 118)" stroke-width="1" d="M614.5,85.5C634.5,85.5,634.5,83.5,654.5,83.5"></path><path id="kity_path_167" fill="none" stroke="rgb(115, 191, 118)" stroke-width="1" d="M614.5,85.5C634.5,85.5,634.5,138,654.5,138"></path><path id="kity_path_175" fill="none" stroke="rgb(115, 191, 118)" stroke-width="1" d="M538.5,530.5C558.5,530,558.5,451.5,578.5,451.5"></path><path id="kity_path_183" fill="none" stroke="rgb(115, 191, 118)" stroke-width="1" d="M647.5,451.5C667.5,451.5,667.5,349,687.5,349"></path><path id="kity_path_191" fill="none" stroke="rgb(115, 191, 118)" stroke-width="1" d="M647.5,451.5C667.5,451.5,667.5,504.5,687.5,504.5"></path><path id="kity_path_199" fill="none" stroke="rgb(115, 191, 118)" stroke-width="1" d="M647.5,451.5C667.5,451.5,667.5,556.5,687.5,556.5"></path><path id="kity_path_255" fill="none" stroke="rgb(115, 191, 118)" stroke-width="1" d="M505.5,138.5C525.5,138.5,525.5,191.5,545.5,191.5"></path><path id="kity_path_262" fill="none" stroke="rgb(115, 191, 118)" stroke-width="1" d="M778.5,349.5C798.5,349,798.5,245.5,818.5,245.5"></path><path id="kity_path_263" fill="none" stroke="rgb(115, 191, 118)" stroke-width="1" d="M778.5,349.5C798.5,349,798.5,297.5,818.5,297.5"></path><path id="kity_path_264" fill="none" stroke="rgb(115, 191, 118)" stroke-width="1" d="M778.5,349.5C798.5,349,798.5,349.5,818.5,349.5"></path><path id="kity_path_265" fill="none" stroke="rgb(115, 191, 118)" stroke-width="1" d="M778.5,349.5C798.5,349,798.5,401.5,818.5,401.5"></path><path id="kity_path_266" fill="none" stroke="rgb(115, 191, 118)" stroke-width="1" d="M778.5,349.5C798.5,349,798.5,453.5,818.5,453.5"></path><path id="kity_path_268" fill="none" stroke="rgb(115, 191, 118)" stroke-width="1" d="M538.5,530.5C558.5,530,558.5,608.5,578.5,608.5"></path><path id="kity_path_276" fill="none" stroke="rgb(115, 191, 118)" stroke-width="1" d="M526.5,686.5C546.5,686,546.5,686.5,566.5,686.5"></path><path id="kity_path_284" fill="none" stroke="rgb(115, 191, 118)" stroke-width="1" d="M661.5,686.5C681.5,686.5,681.5,686.5,701.5,686.5"></path><path id="kity_path_292" fill="none" stroke="rgb(115, 191, 118)" stroke-width="1" d="M795.5,686.5C815.5,686.5,815.5,686.5,835.5,686.5"></path><path id="kity_path_300" fill="none" stroke="rgb(115, 191, 118)" stroke-width="1" d="M954.5,686.5C974.5,686.5,974.5,660.5,994.5,660.5"></path><path id="kity_path_308" fill="none" stroke="rgb(115, 191, 118)" stroke-width="1" d="M954.5,686.5C974.5,686.5,974.5,712.5,994.5,712.5"></path><path id="kity_path_316" fill="none" stroke="rgb(115, 191, 118)" stroke-width="1" d="M371.5,557.5C391.5,557.5,391.5,976.5,411.5,976.5"></path><path id="kity_path_324" fill="none" stroke="rgb(115, 191, 118)" stroke-width="1" d="M481.5,842.5C501.5,842.5,501.5,764.5,521.5,764.5"></path><path id="kity_path_332" fill="none" stroke="rgb(115, 191, 118)" stroke-width="1" d="M481.5,842.5C501.5,842.5,501.5,816.5,521.5,816.5"></path><path id="kity_path_340" fill="none" stroke="rgb(115, 191, 118)" stroke-width="1" d="M481.5,842.5C501.5,842.5,501.5,868.5,521.5,868.5"></path><path id="kity_path_348" fill="none" stroke="rgb(115, 191, 118)" stroke-width="1" d="M481.5,842.5C501.5,842.5,501.5,920.5,521.5,920.5"></path><path id="kity_path_356" fill="none" stroke="rgb(115, 191, 118)" stroke-width="1" d="M505.5,976.5C525.5,976.5,525.5,976.5,545.5,976.5"></path><path id="kity_path_364" fill="none" stroke="rgb(115, 191, 118)" stroke-width="1" d="M640.5,976.5C660.5,976.5,660.5,976.5,680.5,976.5"></path><path id="kity_path_372" fill="none" stroke="rgb(115, 191, 118)" stroke-width="1" d="M775.5,976.5C795.5,976.5,795.5,976.5,815.5,976.5"></path></g><g id="minder_node1"><path id="node_outline1" fill="rgb(115, 191, 118)" stroke="rgb(115, 191, 118)" d="M25.5,813.5h152a5,5,0,0,1,5,5v30a5,5,0,0,1,-5,5h-152a5,5,0,0,1,-5,-5v-30a5,5,0,0,1,5,-5z" stroke-width="3"></path><g id="node_text1" fill="white"><text id="kity_text_22" text-rendering="inherit" font-size="16" dy=".8em" y="823.0999999046326" x="44.5">数字化样机平台</text></g><g id="node_priority1" display="none"><path id="kity_path_32" fill="#840023" stroke="none" d="M15,837c0,3.866,3.134,7,7,7h6c3.866,0,7,-3.134,7,-7V831H15V837z"></path><path id="kity_path_33" fill="#FF1200" stroke="none" d="M35,834c0,3.866,-3.134,7,-7,7H22c-3.866,0,-7,-3.134,-7,-7V831c0,-3.866,3.134,-7,7,-7h6c3.866,0,7,3.134,7,7V834z" opacity="0.8"></path><text id="kity_text_34" text-rendering="geometricPrecision" x="24" y="833.5" text-anchor="middle" font-style="italic" font-size="12" fill="white" dy="5">1</text></g><g id="kity_g_50" display="none"><g id="kity_g_51"><path id="kity_path_52" fill="rgb(255, 179, 251)" stroke="none" d="M168.5,820.5h23v24h-23z"></path><text id="kity_text_53" text-rendering="geometricPrecision" font-size="12" dy="5" x="176.5" fill="rgb(77, 0, 73)" y="832.5">1</text></g></g></g><g id="kity_g_14" display="none"><path id="kity_path_15" fill="rgba(0, 153, 5, 0.5)" stroke="none" d="M545.5,960.5h70v15h-70z"></path><path id="kity_path_16" fill="none" stroke="rgb(0, 128, 4)" d="M545.5,960.5L615.5,960.5" stroke-width="1"></path></g><g id="minder_node3"><g id="node_expander2" style="cursor: pointer;"><path id="kity_path_60" fill="white" stroke="gray" d="M301.5,557.5A6,6,0,1,1,289.5,557.5A6,6,0,1,1,301.5,557.5"></path><path id="kity_path_61" fill="none" stroke="gray" d="M291,557.5L300,557.5"></path></g><path id="node_outline3" fill="rgb(238, 246, 238)" stroke="rgb(115, 191, 118)" d="M305.5,544.5h63a3,3,0,0,1,3,3v20a3,3,0,0,1,-3,3h-63a3,3,0,0,1,-3,-3v-20a3,3,0,0,1,3,-3z" stroke-width="1"></path><g id="node_text3" fill="black"><text id="kity_text_57" text-rendering="inherit" font-size="14" dy=".8em" y="548.4000000953674" x="322.5">雷达</text></g></g><g id="minder_node4"><g id="node_expander3" style="cursor: pointer;" display="none"><path id="kity_path_68" fill="white" stroke="gray" d="M301.5,1043.5A6,6,0,1,1,289.5,1043.5A6,6,0,1,1,301.5,1043.5"></path><path id="kity_path_69" fill="none" stroke="gray" d="M291,1043.5L300,1043.5"></path></g><path id="node_outline4" fill="rgb(238, 246, 238)" stroke="rgb(115, 191, 118)" d="M305.5,1030.5h92a3,3,0,0,1,3,3v20a3,3,0,0,1,-3,3h-92a3,3,0,0,1,-3,-3v-20a3,3,0,0,1,3,-3z" stroke-width="1"></path><g id="node_text4" fill="black"><text id="kity_text_65" text-rendering="inherit" font-size="14" dy=".8em" y="1034.4000000953674" x="322.5">对抗设备</text></g></g><g id="minder_node6"><g id="node_expander5" style="cursor: pointer;" display="none"><path id="kity_path_84" fill="white" stroke="gray" d="M301.5,1109.5A6,6,0,1,1,289.5,1109.5A6,6,0,1,1,301.5,1109.5"></path><path id="kity_path_85" fill="none" stroke="gray"></path></g><path id="node_outline6" fill="rgb(238, 246, 238)" stroke="rgb(115, 191, 118)" d="M305.5,1096.5h64a3,3,0,0,1,3,3v20a3,3,0,0,1,-3,3h-64a3,3,0,0,1,-3,-3v-20a3,3,0,0,1,3,-3z" stroke-width="1"></path><g id="node_text6" fill="black"><text id="kity_text_81" text-rendering="inherit" font-size="14" dy=".8em" y="1100.4000000953674" x="322.5">环境</text></g></g><g id="minder_node7"><g id="node_expander6" style="cursor: pointer;"><path id="kity_path_92" fill="white" stroke="gray" d="M411.5,138.5A6,6,0,1,1,399.5,138.5A6,6,0,1,1,411.5,138.5"></path><path id="kity_path_93" fill="none" stroke="gray" d="M401,138.5L410,138.5"></path></g><path id="node_outline7" fill="none" stroke="none" d="M416.5,127.5h84a5,5,0,0,1,5,5v12a5,5,0,0,1,-5,5h-84a5,5,0,0,1,-5,-5v-12a5,5,0,0,1,5,-5z" stroke-width="3"></path><g id="node_text7" fill="black"><text id="kity_text_89" text-rendering="inherit" font-size="12" dy=".8em" y="130.70000004768372" x="421.5">运算集群管理</text></g></g><g id="minder_node8"><g id="node_expander7" style="cursor: pointer;"><path id="kity_path_100" fill="white" stroke="gray" d="M411.5,530A6,6,0,1,1,399.5,530A6,6,0,1,1,411.5,530"></path><path id="kity_path_101" fill="none" stroke="gray" d="M401,530L410,530"></path></g><path id="node_outline8" fill="none" stroke="none" d="M416.5,516.5h117a5,5,0,0,1,5,5v17a5,5,0,0,1,-5,5h-117a5,5,0,0,1,-5,-5v-17a5,5,0,0,1,5,-5z" stroke-width="3"></path><g id="node_text8" fill="black"><text id="kity_text_97" text-rendering="inherit" font-size="12" dy=".8em" y="521.7000000476837" x="421.5">算法组件库管理</text></g><g id="kity_g_423" style="cursor: pointer;"><path id="kity_path_424" fill="none" stroke="none" d="M515,521h12a2,2,0,0,1,2,2v13a2,2,0,0,1,-2,2h-12a2,2,0,0,1,-2,-2v-13a2,2,0,0,1,2,-2z"></path><path id="kity_path_425" fill="black" stroke="none" d="M524,532H518V531h6L524,532L524,532zM524,530H518V529h6V530zM524,528H518V527h6V528zM523.5,534H517V525h8v7.5M524,535l2,-2V524H516v11"></path></g></g><g id="minder_node9"><g id="node_expander8" style="cursor: pointer;"><path id="kity_path_108" fill="white" stroke="gray" d="M411.5,686A6,6,0,1,1,399.5,686A6,6,0,1,1,411.5,686"></path><path id="kity_path_109" fill="none" stroke="gray" d="M401,686L410,686"></path></g><path id="node_outline9" fill="none" stroke="none" d="M416.5,672.5h105a5,5,0,0,1,5,5v17a5,5,0,0,1,-5,5h-105a5,5,0,0,1,-5,-5v-17a5,5,0,0,1,5,-5z" stroke-width="3"></path><g id="node_text9" fill="black"><text id="kity_text_105" text-rendering="inherit" font-size="12" dy=".8em" y="677.7000000476837" x="421.5">运算流程设计</text></g><g id="kity_g_429" style="cursor: pointer;"><path id="kity_path_430" fill="none" stroke="none" d="M503,677h12a2,2,0,0,1,2,2v13a2,2,0,0,1,-2,2h-12a2,2,0,0,1,-2,-2v-13a2,2,0,0,1,2,-2z"></path><path id="kity_path_431" fill="black" stroke="none" d="M512,688H506V687h6L512,688L512,688zM512,686H506V685h6V686zM512,684H506V683h6V684zM511.5,690H505V681h8v7.5M512,691l2,-2V680H504v11"></path></g></g><g id="minder_node11"><g id="node_expander10" style="cursor: pointer;"><path id="kity_path_124" fill="white" stroke="gray" d="M411.5,842.5A6,6,0,1,1,399.5,842.5A6,6,0,1,1,411.5,842.5"></path><path id="kity_path_125" fill="none" stroke="gray" d="M401,842.5L410,842.5"></path></g><path id="node_outline11" fill="none" stroke="none" d="M416.5,831.5h60a5,5,0,0,1,5,5v12a5,5,0,0,1,-5,5h-60a5,5,0,0,1,-5,-5v-12a5,5,0,0,1,5,-5z" stroke-width="3"></path><g id="node_text11" fill="black"><text id="kity_text_121" text-rendering="inherit" font-size="12" dy=".8em" y="834.7000000476837" x="421.5">实际运算</text></g></g><g id="minder_node13"><g id="node_expander12" style="cursor: pointer;"><path id="kity_path_140" fill="white" stroke="gray" d="M545.5,85.5A6,6,0,1,1,533.5,85.5A6,6,0,1,1,545.5,85.5"></path><path id="kity_path_141" fill="none" stroke="gray" d="M535,85.5L544,85.5"></path></g><path id="node_outline13" fill="none" stroke="none" d="M550.5,74.5h59a5,5,0,0,1,5,5v12a5,5,0,0,1,-5,5h-59a5,5,0,0,1,-5,-5v-12a5,5,0,0,1,5,-5z" stroke-width="3"></path><g id="node_text13" fill="black"><text id="kity_text_137" text-rendering="inherit" font-size="12" dy=".8em" y="77.70000004768372" x="555.5">设备列表</text></g></g><g id="minder_node14" opacity="1"><g id="node_expander13" style="cursor: pointer;" display="none"><path id="kity_path_148" fill="white" stroke="gray" d="M654.5,31.5A6,6,0,1,1,642.5,31.5A6,6,0,1,1,654.5,31.5"></path><path id="kity_path_149" fill="none" stroke="gray"></path></g><path id="node_outline14" fill="none" stroke="none" d="M659.5,20.5h60a5,5,0,0,1,5,5v12a5,5,0,0,1,-5,5h-60a5,5,0,0,1,-5,-5v-12a5,5,0,0,1,5,-5z" stroke-width="3"></path><g id="node_text14" fill="black"><text id="kity_text_145" text-rendering="inherit" font-size="12" dy=".8em" y="23.700000047683716" x="664.5">查看设备</text></g></g><g id="minder_node15" opacity="1"><g id="node_expander14" style="cursor: pointer;" display="none"><path id="kity_path_156" fill="white" stroke="gray" d="M654.5,83.5A6,6,0,1,1,642.5,83.5A6,6,0,1,1,654.5,83.5"></path><path id="kity_path_157" fill="none" stroke="gray" d="M644,83.5L653,83.5"></path></g><path id="node_outline15" fill="none" stroke="none" d="M659.5,72.5h60a5,5,0,0,1,5,5v12a5,5,0,0,1,-5,5h-60a5,5,0,0,1,-5,-5v-12a5,5,0,0,1,5,-5z" stroke-width="3"></path><g id="node_text15" fill="black"><text id="kity_text_153" text-rendering="inherit" font-size="12" dy=".8em" y="75.70000004768372" x="664.5">解除设备</text></g></g><g id="minder_node17" opacity="1"><g id="node_expander16" style="cursor: pointer;" display="none"><path id="kity_path_172" fill="white" stroke="gray" d="M654.5,138A6,6,0,1,1,642.5,138A6,6,0,1,1,654.5,138"></path><path id="kity_path_173" fill="none" stroke="gray"></path></g><path id="node_outline17" fill="none" stroke="none" d="M659.5,124.5h80a5,5,0,0,1,5,5v17a5,5,0,0,1,-5,5h-80a5,5,0,0,1,-5,-5v-17a5,5,0,0,1,5,-5z" stroke-width="3"></path><g id="node_text17" fill="black"><text id="kity_text_169" text-rendering="inherit" font-size="12" dy=".8em" y="129.70000004768372" x="664.5">下发程序</text></g><g id="kity_g_426" style="cursor: pointer;"><path id="kity_path_427" fill="none" stroke="none" d="M721,129h12a2,2,0,0,1,2,2v13a2,2,0,0,1,-2,2h-12a2,2,0,0,1,-2,-2v-13a2,2,0,0,1,2,-2z"></path><path id="kity_path_428" fill="black" stroke="none" d="M730,140H724V139h6L730,140L730,140zM730,138H724V137h6V138zM730,136H724V135h6V136zM729.5,142H723V133h8v7.5M730,143l2,-2V132H722v11"></path></g></g><g id="minder_node18"><g id="node_expander17" style="cursor: pointer;"><path id="kity_path_180" fill="white" stroke="gray" d="M578.5,451.5A6,6,0,1,1,566.5,451.5A6,6,0,1,1,578.5,451.5"></path><path id="kity_path_181" fill="none" stroke="gray" d="M568,451.5L577,451.5"></path></g><path id="node_outline18" fill="none" stroke="none" d="M583.5,440.5h59a5,5,0,0,1,5,5v12a5,5,0,0,1,-5,5h-59a5,5,0,0,1,-5,-5v-12a5,5,0,0,1,5,-5z" stroke-width="3"></path><g id="node_text18" fill="black"><text id="kity_text_177" text-rendering="inherit" font-size="12" dy=".8em" y="443.7000000476837" x="588.5">组件列表</text></g></g><g id="minder_node19" opacity="1"><g id="node_expander18" style="cursor: pointer;"><path id="kity_path_188" fill="white" stroke="gray" d="M687.5,349A6,6,0,1,1,675.5,349A6,6,0,1,1,687.5,349"></path><path id="kity_path_189" fill="none" stroke="gray" d="M677,349L686,349"></path></g><path id="node_outline19" fill="none" stroke="none" d="M692.5,335.5h81a5,5,0,0,1,5,5v17a5,5,0,0,1,-5,5h-81a5,5,0,0,1,-5,-5v-17a5,5,0,0,1,5,-5z" stroke-width="3"></path><g id="node_text19" fill="black"><text id="kity_text_185" text-rendering="inherit" font-size="12" dy=".8em" y="340.7000000476837" x="697.5">查看组件</text></g><g id="kity_g_420" style="cursor: pointer;"><path id="kity_path_421" fill="none" stroke="none" d="M755,340h12a2,2,0,0,1,2,2v13a2,2,0,0,1,-2,2h-12a2,2,0,0,1,-2,-2v-13a2,2,0,0,1,2,-2z"></path><path id="kity_path_422" fill="black" stroke="none" d="M764,351H758V350h6L764,351L764,351zM764,349H758V348h6V349zM764,347H758V346h6V347zM763.5,353H757V344h8v7.5M764,354l2,-2V343H756v11"></path></g></g><g id="minder_node20" opacity="1"><g id="node_expander19" style="cursor: pointer;" display="none"><path id="kity_path_196" fill="white" stroke="gray" d="M687.5,504.5A6,6,0,1,1,675.5,504.5A6,6,0,1,1,687.5,504.5"></path><path id="kity_path_197" fill="none" stroke="gray"></path></g><path id="node_outline20" fill="none" stroke="none" d="M692.5,493.5h60a5,5,0,0,1,5,5v12a5,5,0,0,1,-5,5h-60a5,5,0,0,1,-5,-5v-12a5,5,0,0,1,5,-5z" stroke-width="3"></path><g id="node_text20" fill="black"><text id="kity_text_193" text-rendering="inherit" font-size="12" dy=".8em" y="496.7000000476837" x="697.5">删除组件</text></g></g><g id="minder_node21" opacity="1"><g id="node_expander20" style="cursor: pointer;" display="none"><path id="kity_path_204" fill="white" stroke="gray" d="M687.5,556.5A6,6,0,1,1,675.5,556.5A6,6,0,1,1,687.5,556.5"></path><path id="kity_path_205" fill="none" stroke="gray"></path></g><path id="node_outline21" fill="none" stroke="none" d="M692.5,545.5h60a5,5,0,0,1,5,5v12a5,5,0,0,1,-5,5h-60a5,5,0,0,1,-5,-5v-12a5,5,0,0,1,5,-5z" stroke-width="3"></path><g id="node_text21" fill="black"><text id="kity_text_201" text-rendering="inherit" font-size="12" dy=".8em" y="548.7000000476837" x="697.5">修改组件</text></g></g><g id="minder_node28"><g id="node_expander27" style="cursor: pointer;" display="none"><path id="kity_path_260" fill="white" stroke="gray" d="M545.5,191.5A6,6,0,1,1,533.5,191.5A6,6,0,1,1,545.5,191.5"></path><path id="kity_path_261" fill="none" stroke="gray"></path></g><path id="node_outline28" fill="none" stroke="none" d="M550.5,180.5h60a5,5,0,0,1,5,5v12a5,5,0,0,1,-5,5h-60a5,5,0,0,1,-5,-5v-12a5,5,0,0,1,5,-5z" stroke-width="3"></path><g id="node_text28" fill="black"><text id="kity_text_257" text-rendering="inherit" font-size="12" dy=".8em" y="183.70000004768372" x="555.5">添加设备</text></g></g><g id="minder_node22"><g id="node_expander21" style="cursor: pointer;" display="none"><path id="kity_path_212" fill="white" stroke="gray" d="M818.5,245.5A6,6,0,1,1,806.5,245.5A6,6,0,1,1,818.5,245.5"></path><path id="kity_path_213" fill="none" stroke="gray" d="M808,245.5L817,245.5"></path></g><path id="node_outline22" fill="none" stroke="none" d="M823.5,234.5h46a5,5,0,0,1,5,5v12a5,5,0,0,1,-5,5h-46a5,5,0,0,1,-5,-5v-12a5,5,0,0,1,5,-5z" stroke-width="3"></path><g id="node_text22" fill="black"><text id="kity_text_209" text-rendering="inherit" font-size="12" dy=".8em" y="237.70000004768372" x="828.5">组件名</text></g></g><g id="minder_node24"><g id="node_expander23" style="cursor: pointer;" display="none"><path id="kity_path_228" fill="white" stroke="gray" d="M818.5,297.5A6,6,0,1,1,806.5,297.5A6,6,0,1,1,818.5,297.5"></path><path id="kity_path_229" fill="none" stroke="gray"></path></g><path id="node_outline24" fill="none" stroke="none" d="M823.5,286.5h59a5,5,0,0,1,5,5v12a5,5,0,0,1,-5,5h-59a5,5,0,0,1,-5,-5v-12a5,5,0,0,1,5,-5z" stroke-width="3"></path><g id="node_text24" fill="black"><text id="kity_text_225" text-rendering="inherit" font-size="12" dy=".8em" y="289.7000000476837" x="828.5">组件属性</text></g></g><g id="minder_node25"><g id="node_expander24" style="cursor: pointer;" display="none"><path id="kity_path_236" fill="white" stroke="gray" d="M818.5,349.5A6,6,0,1,1,806.5,349.5A6,6,0,1,1,818.5,349.5"></path><path id="kity_path_237" fill="none" stroke="gray"></path></g><path id="node_outline25" fill="none" stroke="none" d="M823.5,338.5h84a5,5,0,0,1,5,5v12a5,5,0,0,1,-5,5h-84a5,5,0,0,1,-5,-5v-12a5,5,0,0,1,5,-5z" stroke-width="3"></path><g id="node_text25" fill="black"><text id="kity_text_233" text-rendering="inherit" font-size="12" dy=".8em" y="341.7000000476837" x="828.5">输入数据类型</text></g></g><g id="minder_node26"><g id="node_expander25" style="cursor: pointer;" display="none"><path id="kity_path_244" fill="white" stroke="gray" d="M818.5,401.5A6,6,0,1,1,806.5,401.5A6,6,0,1,1,818.5,401.5"></path><path id="kity_path_245" fill="none" stroke="gray"></path></g><path id="node_outline26" fill="none" stroke="none" d="M823.5,390.5h84a5,5,0,0,1,5,5v12a5,5,0,0,1,-5,5h-84a5,5,0,0,1,-5,-5v-12a5,5,0,0,1,5,-5z" stroke-width="3"></path><g id="node_text26" fill="black"><text id="kity_text_241" text-rendering="inherit" font-size="12" dy=".8em" y="393.7000000476837" x="828.5">输出数据类型</text></g></g><g id="minder_node27"><g id="node_expander26" style="cursor: pointer;" display="none"><path id="kity_path_252" fill="white" stroke="gray" d="M818.5,453.5A6,6,0,1,1,806.5,453.5A6,6,0,1,1,818.5,453.5"></path><path id="kity_path_253" fill="none" stroke="gray"></path></g><path id="node_outline27" fill="none" stroke="none" d="M823.5,442.5h95a5,5,0,0,1,5,5v12a5,5,0,0,1,-5,5h-95a5,5,0,0,1,-5,-5v-12a5,5,0,0,1,5,-5z" stroke-width="3"></path><g id="node_text27" fill="black"><text id="kity_text_249" text-rendering="inherit" font-size="12" dy=".8em" y="445.7000000476837" x="828.5">可运行的设备名</text></g></g><g id="minder_node29"><g id="node_expander28" style="cursor: pointer;" display="none"><path id="kity_path_273" fill="white" stroke="gray" d="M578.5,608.5A6,6,0,1,1,566.5,608.5A6,6,0,1,1,578.5,608.5"></path><path id="kity_path_274" fill="none" stroke="gray"></path></g><path id="node_outline29" fill="none" stroke="none" d="M583.5,597.5h60a5,5,0,0,1,5,5v12a5,5,0,0,1,-5,5h-60a5,5,0,0,1,-5,-5v-12a5,5,0,0,1,5,-5z" stroke-width="3"></path><g id="node_text29" fill="black"><text id="kity_text_270" text-rendering="inherit" font-size="12" dy=".8em" y="600.7000000476837" x="588.5">添加组件</text></g></g><g id="minder_node30"><g id="node_expander29" style="cursor: pointer;"><path id="kity_path_281" fill="white" stroke="gray" d="M566.5,686.5A6,6,0,1,1,554.5,686.5A6,6,0,1,1,566.5,686.5"></path><path id="kity_path_282" fill="none" stroke="gray" d="M556,686.5L565,686.5"></path></g><path id="node_outline30" fill="none" stroke="none" d="M571.5,671.5h85a5,5,0,0,1,5,5v20a5,5,0,0,1,-5,5h-85a5,5,0,0,1,-5,-5v-20a5,5,0,0,1,5,-5z" stroke-width="3"></path><g id="node_text30" fill="black"><text id="kity_text_278" text-rendering="inherit" font-size="12" dy=".8em" y="678.7000000476837" x="601.5">新建雷达</text></g><g id="node_progress4"><path id="kity_path_403" fill="#FFED83" stroke="none" d="M596,687A9,9,0,1,1,578,687A9,9,0,1,1,596,687"></path><path id="kity_path_404" fill="#43BC00" stroke="none" d="M587,687L596,687A9,9,0,0,0,595.3149157926016,683.5558491087141A9,9,0,0,0,593.363961030679,680.636038969321L587,687z"></path><path id="kity_path_405" fill="#8E8E8E" stroke="none" d="M587,680c4.418,0,8,3.582,8,8h1c0,-5.523,-3.477,-10,-9,-10S578,682.477,578,688h1C579,683.582,582.582,680,587,680z"></path><path id="kity_path_407" fill="#EEE" stroke="none" d="M602.812,694.896l-6.75,6.75l-4.5,-4.5L593.25,695.459l2.812,2.803l5.062,-5.053L602.812,694.896z" display="none"></path><path id="kity_path_406" fill="url(#kity_linearGradient_17)" stroke="none" d="M587,677C581.477,677,577,681.477,577,687c0,5.523,4.477,10,10,10s10,-4.477,10,-10C597,681.477,592.523,677,587,677zM587,695c-4.418,0,-8,-3.582,-8,-8s3.582,-8,8,-8s8,3.582,8,8S591.418,695,587,695z"></path></g></g><g id="minder_node31"><g id="node_expander30" style="cursor: pointer;"><path id="kity_path_289" fill="white" stroke="gray" d="M701.5,686.5A6,6,0,1,1,689.5,686.5A6,6,0,1,1,701.5,686.5"></path><path id="kity_path_290" fill="none" stroke="gray" d="M691,686.5L700,686.5"></path></g><path id="node_outline31" fill="none" stroke="none" d="M706.5,671.5h84a5,5,0,0,1,5,5v20a5,5,0,0,1,-5,5h-84a5,5,0,0,1,-5,-5v-20a5,5,0,0,1,5,-5z" stroke-width="3"></path><g id="node_text31" fill="black"><text id="kity_text_286" text-rendering="inherit" font-size="12" dy=".8em" y="678.7000000476837" x="736.5">组件链接</text></g><g id="node_progress5"><path id="kity_path_409" fill="#FFED83" stroke="none" d="M731,687A9,9,0,1,1,713,687A9,9,0,1,1,731,687"></path><path id="kity_path_410" fill="#43BC00" stroke="none" d="M722,687L731,687A9,9,0,0,0,722,678A9,9,0,0,0,713,687L722,687z"></path><path id="kity_path_411" fill="#8E8E8E" stroke="none" d="M722,680c4.418,0,8,3.582,8,8h1c0,-5.523,-3.477,-10,-9,-10S713,682.477,713,688h1C714,683.582,717.582,680,722,680z"></path><path id="kity_path_413" fill="#EEE" stroke="none" d="M737.812,694.896l-6.75,6.75l-4.5,-4.5L728.25,695.459l2.812,2.803l5.062,-5.053L737.812,694.896z" display="none"></path><path id="kity_path_412" fill="url(#kity_linearGradient_17)" stroke="none" d="M722,677C716.477,677,712,681.477,712,687c0,5.523,4.477,10,10,10s10,-4.477,10,-10C732,681.477,727.523,677,722,677zM722,695c-4.418,0,-8,-3.582,-8,-8s3.582,-8,8,-8s8,3.582,8,8S726.418,695,722,695z"></path></g></g><g id="minder_node32"><g id="node_expander31" style="cursor: pointer;"><path id="kity_path_297" fill="white" stroke="gray" d="M835.5,686.5A6,6,0,1,1,823.5,686.5A6,6,0,1,1,835.5,686.5"></path><path id="kity_path_298" fill="none" stroke="gray" d="M825,686.5L834,686.5"></path></g><path id="node_outline32" fill="none" stroke="none" d="M840.5,671.5h109a5,5,0,0,1,5,5v20a5,5,0,0,1,-5,5h-109a5,5,0,0,1,-5,-5v-20a5,5,0,0,1,5,-5z" stroke-width="3"></path><g id="node_text32" fill="black"><text id="kity_text_294" text-rendering="inherit" font-size="12" dy=".8em" y="678.7000000476837" x="870.5">运行仿真测试</text></g><g id="node_progress6"><path id="kity_path_415" fill="#FFED83" stroke="none" d="M865,687A9,9,0,1,1,847,687A9,9,0,1,1,865,687"></path><path id="kity_path_416" fill="#43BC00" stroke="none" d="M856,687L865,687A9,9,0,0,0,847.6850842073984,683.5558491087141A9,9,0,0,0,862.363961030679,693.363961030679L856,687z"></path><path id="kity_path_417" fill="#8E8E8E" stroke="none" d="M856,680c4.418,0,8,3.582,8,8h1c0,-5.523,-3.477,-10,-9,-10S847,682.477,847,688h1C848,683.582,851.582,680,856,680z"></path><path id="kity_path_419" fill="#EEE" stroke="none" d="M871.812,694.896l-6.75,6.75l-4.5,-4.5L862.25,695.459l2.812,2.803l5.062,-5.053L871.812,694.896z" display="none"></path><path id="kity_path_418" fill="url(#kity_linearGradient_17)" stroke="none" d="M856,677C850.477,677,846,681.477,846,687c0,5.523,4.477,10,10,10s10,-4.477,10,-10C866,681.477,861.523,677,856,677zM856,695c-4.418,0,-8,-3.582,-8,-8s3.582,-8,8,-8s8,3.582,8,8S860.418,695,856,695z"></path></g></g><g id="minder_node33"><g id="node_expander32" style="cursor: pointer;" display="none"><path id="kity_path_305" fill="white" stroke="gray" d="M994.5,660.5A6,6,0,1,1,982.5,660.5A6,6,0,1,1,994.5,660.5"></path><path id="kity_path_306" fill="none" stroke="gray"></path></g><path id="node_outline33" fill="none" stroke="none" d="M999.5,649.5h60a5,5,0,0,1,5,5v12a5,5,0,0,1,-5,5h-60a5,5,0,0,1,-5,-5v-12a5,5,0,0,1,5,-5z" stroke-width="3"></path><g id="node_text33" fill="black"><text id="kity_text_302" text-rendering="inherit" font-size="12" dy=".8em" y="652.7000000476837" x="1004.5">保存雷达</text></g></g><g id="minder_node34"><g id="node_expander33" style="cursor: pointer;" display="none"><path id="kity_path_313" fill="white" stroke="gray" d="M994.5,712.5A6,6,0,1,1,982.5,712.5A6,6,0,1,1,994.5,712.5"></path><path id="kity_path_314" fill="none" stroke="gray"></path></g><path id="node_outline34" fill="none" stroke="none" d="M999.5,701.5h60a5,5,0,0,1,5,5v12a5,5,0,0,1,-5,5h-60a5,5,0,0,1,-5,-5v-12a5,5,0,0,1,5,-5z" stroke-width="3"></path><g id="node_text34" fill="black"><text id="kity_text_310" text-rendering="inherit" font-size="12" dy=".8em" y="704.7000000476837" x="1004.5">取消保存</text></g></g><g id="minder_node35"><g id="node_expander34" style="cursor: pointer;"><path id="kity_path_321" fill="white" stroke="gray" d="M411.5,976.5A6,6,0,1,1,399.5,976.5A6,6,0,1,1,411.5,976.5"></path><path id="kity_path_322" fill="none" stroke="gray" d="M401,976.5L410,976.5"></path></g><path id="node_outline35" fill="none" stroke="none" d="M416.5,965.5h84a5,5,0,0,1,5,5v12a5,5,0,0,1,-5,5h-84a5,5,0,0,1,-5,-5v-12a5,5,0,0,1,5,-5z" stroke-width="3"></path><g id="node_text35" fill="black"><text id="kity_text_318" text-rendering="inherit" font-size="12" dy=".8em" y="968.7000000476837" x="421.5">数据显示分析</text></g><g id="node_priority2" display="none"><path id="kity_path_381" fill="#840023" stroke="none" d="M397,980c0,3.866,3.134,7,7,7h6c3.866,0,7,-3.134,7,-7V974H397V980z"></path><path id="kity_path_382" fill="#FF1200" stroke="none" d="M417,977c0,3.866,-3.134,7,-7,7H404c-3.866,0,-7,-3.134,-7,-7V974c0,-3.866,3.134,-7,7,-7h6c3.866,0,7,3.134,7,7V977z" opacity="0.8"></path><text id="kity_text_383" text-rendering="geometricPrecision" x="406" y="976.5" text-anchor="middle" font-style="italic" font-size="12" fill="white" dy="5">1</text></g></g><g id="minder_node36"><g id="node_expander35" style="cursor: pointer;" display="none"><path id="kity_path_329" fill="white" stroke="gray" d="M521.5,764.5A6,6,0,1,1,509.5,764.5A6,6,0,1,1,521.5,764.5"></path><path id="kity_path_330" fill="none" stroke="gray"></path></g><path id="node_outline36" fill="none" stroke="none" d="M526.5,753.5h60a5,5,0,0,1,5,5v12a5,5,0,0,1,-5,5h-60a5,5,0,0,1,-5,-5v-12a5,5,0,0,1,5,-5z" stroke-width="3"></path><g id="node_text36" fill="black"><text id="kity_text_326" text-rendering="inherit" font-size="12" dy=".8em" y="756.7000000476837" x="531.5">数据传输</text></g></g><g id="minder_node37"><g id="node_expander36" style="cursor: pointer;" display="none"><path id="kity_path_337" fill="white" stroke="gray" d="M521.5,816.5A6,6,0,1,1,509.5,816.5A6,6,0,1,1,521.5,816.5"></path><path id="kity_path_338" fill="none" stroke="gray"></path></g><path id="node_outline37" fill="none" stroke="none" d="M526.5,805.5h83a5,5,0,0,1,5,5v12a5,5,0,0,1,-5,5h-83a5,5,0,0,1,-5,-5v-12a5,5,0,0,1,5,-5z" stroke-width="3"></path><g id="node_text37" fill="black"><text id="kity_text_334" text-rendering="inherit" font-size="12" dy=".8em" y="808.7000000476837" x="531.5">中间数据存储</text></g></g><g id="minder_node38"><g id="node_expander37" style="cursor: pointer;" display="none"><path id="kity_path_345" fill="white" stroke="gray" d="M521.5,868.5A6,6,0,1,1,509.5,868.5A6,6,0,1,1,521.5,868.5"></path><path id="kity_path_346" fill="none" stroke="gray"></path></g><path id="node_outline38" fill="none" stroke="none" d="M526.5,857.5h83a5,5,0,0,1,5,5v12a5,5,0,0,1,-5,5h-83a5,5,0,0,1,-5,-5v-12a5,5,0,0,1,5,-5z" stroke-width="3"></path><g id="node_text38" fill="black"><text id="kity_text_342" text-rendering="inherit" font-size="12" dy=".8em" y="860.7000000476837" x="531.5">实时状态监控</text></g></g><g id="minder_node39"><g id="node_expander38" style="cursor: pointer;" display="none"><path id="kity_path_353" fill="white" stroke="gray" d="M521.5,920.5A6,6,0,1,1,509.5,920.5A6,6,0,1,1,521.5,920.5"></path><path id="kity_path_354" fill="none" stroke="gray"></path></g><path id="node_outline39" fill="none" stroke="none" d="M526.5,909.5h84a5,5,0,0,1,5,5v12a5,5,0,0,1,-5,5h-84a5,5,0,0,1,-5,-5v-12a5,5,0,0,1,5,-5z" stroke-width="3"></path><g id="node_text39" fill="black"><text id="kity_text_350" text-rendering="inherit" font-size="12" dy=".8em" y="912.7000000476837" x="531.5">运算进度展示</text></g></g><g id="minder_node40"><g id="node_expander39" style="cursor: pointer;"><path id="kity_path_361" fill="white" stroke="gray" d="M545.5,976.5A6,6,0,1,1,533.5,976.5A6,6,0,1,1,545.5,976.5"></path><path id="kity_path_362" fill="none" stroke="gray" d="M535,976.5L544,976.5"></path></g><path id="node_outline40" fill="none" stroke="none" d="M550.5,961.5h85a5,5,0,0,1,5,5v20a5,5,0,0,1,-5,5h-85a5,5,0,0,1,-5,-5v-20a5,5,0,0,1,5,-5z" stroke-width="3"></path><g id="node_text40" fill="black"><text id="kity_text_358" text-rendering="inherit" font-size="12" dy=".8em" y="968.7000000476837" x="580.5">数据读取</text></g><g id="node_progress1"><path id="kity_path_385" fill="#FFED83" stroke="none" d="M575,977A9,9,0,1,1,557,977A9,9,0,1,1,575,977"></path><path id="kity_path_386" fill="#43BC00" stroke="none" d="M566,977L575,977A9,9,0,0,0,572.363961030679,970.636038969321A9,9,0,0,0,566,968L566,977z"></path><path id="kity_path_387" fill="#8E8E8E" stroke="none" d="M566,970c4.418,0,8,3.582,8,8h1c0,-5.523,-3.477,-10,-9,-10S557,972.477,557,978h1C558,973.582,561.582,970,566,970z"></path><path id="kity_path_389" fill="#EEE" stroke="none" d="M581.812,984.896l-6.75,6.75l-4.5,-4.5L572.25,985.459l2.812,2.803l5.062,-5.053L581.812,984.896z" display="none"></path><path id="kity_path_388" fill="url(#kity_linearGradient_17)" stroke="none" d="M566,967C560.477,967,556,971.477,556,977c0,5.523,4.477,10,10,10s10,-4.477,10,-10C576,971.477,571.523,967,566,967zM566,985c-4.418,0,-8,-3.582,-8,-8s3.582,-8,8,-8s8,3.582,8,8S570.418,985,566,985z"></path></g></g><g id="minder_node41" opacity="1"><g id="node_expander40" style="cursor: pointer;"><path id="kity_path_369" fill="white" stroke="gray" d="M680.5,976.5A6,6,0,1,1,668.5,976.5A6,6,0,1,1,680.5,976.5"></path><path id="kity_path_370" fill="none" stroke="gray" d="M670,976.5L679,976.5"></path></g><path id="node_outline41" fill="none" stroke="none" d="M685.5,961.5h85a5,5,0,0,1,5,5v20a5,5,0,0,1,-5,5h-85a5,5,0,0,1,-5,-5v-20a5,5,0,0,1,5,-5z" stroke-width="3"></path><g id="node_text41" fill="black"><text id="kity_text_366" text-rendering="inherit" font-size="12" dy=".8em" y="968.7000000476837" x="715.5">数据分析</text></g><g id="node_progress2"><path id="kity_path_391" fill="#FFED83" stroke="none" d="M710,977A9,9,0,1,1,692,977A9,9,0,1,1,710,977"></path><path id="kity_path_392" fill="#43BC00" stroke="none" d="M701,977L710,977A9,9,0,0,0,692.6850842073984,973.5558491087141A9,9,0,0,0,707.363961030679,983.363961030679L701,977z"></path><path id="kity_path_393" fill="#8E8E8E" stroke="none" d="M701,970c4.418,0,8,3.582,8,8h1c0,-5.523,-3.477,-10,-9,-10S692,972.477,692,978h1C693,973.582,696.582,970,701,970z"></path><path id="kity_path_395" fill="#EEE" stroke="none" d="M716.812,984.896l-6.75,6.75l-4.5,-4.5L707.25,985.459l2.812,2.803l5.062,-5.053L716.812,984.896z" display="none"></path><path id="kity_path_394" fill="url(#kity_linearGradient_17)" stroke="none" d="M701,967C695.477,967,691,971.477,691,977c0,5.523,4.477,10,10,10s10,-4.477,10,-10C711,971.477,706.523,967,701,967zM701,985c-4.418,0,-8,-3.582,-8,-8s3.582,-8,8,-8s8,3.582,8,8S705.418,985,701,985z"></path></g></g><g id="minder_node42" opacity="1"><g id="node_expander41" style="cursor: pointer;" display="none"><path id="kity_path_377" fill="white" stroke="gray" d="M815.5,976.5A6,6,0,1,1,803.5,976.5A6,6,0,1,1,815.5,976.5"></path><path id="kity_path_378" fill="none" stroke="gray"></path></g><path id="node_outline42" fill="none" stroke="none" d="M820.5,961.5h85a5,5,0,0,1,5,5v20a5,5,0,0,1,-5,5h-85a5,5,0,0,1,-5,-5v-20a5,5,0,0,1,5,-5z" stroke-width="3"></path><g id="node_text42" fill="black"><text id="kity_text_374" text-rendering="inherit" font-size="12" dy=".8em" y="968.7000000476837" x="850.5">数据显示</text></g><g id="node_progress3"><path id="kity_path_397" fill="#FFED83" stroke="none" d="M845,977A9,9,0,1,1,827,977A9,9,0,1,1,845,977"></path><path id="kity_path_398" fill="#43BC00" stroke="none" d="M836,977L845,977A9,9,0,0,1,827,977A9,9,0,0,1,845,977L836,977z"></path><path id="kity_path_399" fill="#8E8E8E" stroke="none" d="M836,970c4.418,0,8,3.582,8,8h1c0,-5.523,-3.477,-10,-9,-10S827,972.477,827,978h1C828,973.582,831.582,970,836,970z"></path><path id="kity_path_401" fill="#EEE" stroke="none" d="M841.812,974.896l-6.75,6.75l-4.5,-4.5L832.25,975.459l2.812,2.803l5.062,-5.053L841.812,974.896z"></path><path id="kity_path_400" fill="url(#kity_linearGradient_17)" stroke="none" d="M836,967C830.477,967,826,971.477,826,977c0,5.523,4.477,10,10,10s10,-4.477,10,-10C846,971.477,841.523,967,836,967zM836,985c-4.418,0,-8,-3.582,-8,-8s3.582,-8,8,-8s8,3.582,8,8S840.418,985,836,985z"></path></g></g><g id="kity_g_12" display="none"><path id="kity_path_13" fill="none" stroke="rgb(66, 112, 68)" d="M660.5,933.5h60a5,5,0,0,1,5,5v12a5,5,0,0,1,-5,5h-60a5,5,0,0,1,-5,-5v-12a5,5,0,0,1,5,-5z" stroke-width="5"></path></g></g></g></svg>