<svg id="kity_svg_6" xmlns="http://www.w3.org/2000/svg" xmlns:xlink="http://www.w3.org/1999/xlink" version="1.1" width="1305" height="296" style="background: rgb(251, 251, 251); visibility: visible;" viewBox="0 0 1305 296"><defs id="kity_defs_7"><linearGradient id="kity_linearGradient_17" x1="0" y1="0" x2="0" y2="1"><stop id="kity_stop_18" offset="0" stop-color="rgb(255, 255, 255)"></stop><stop id="kity_stop_19" offset="1" stop-color="rgb(204, 204, 204)"></stop></linearGradient><marker id="kity_marker_2" orient="auto" refX="6" refY="0" viewBox="-7 -7 14 14" markerWidth="7" markerHeight="7" markerUnits="userSpaceOnUse"><path id="kity_path_3" fill="rgb(123, 115, 191)" stroke="none" d="M6,0A6,6,0,1,1,-6,0A6,6,0,1,1,6,0"></path></marker></defs><g id="kity_g_8"><g id="minder1" text-rendering="optimize-speed"><g id="minder_connect_group1"><path id="kity_path_31" fill="none" stroke="rgb(123, 115, 191)" stroke-width="1" d="M81,140.5A76.5,59,0,0,1,157.5,81.5"></path><path id="kity_path_39" fill="none" stroke="rgb(123, 115, 191)" stroke-width="1" d="M81,140.5A49.5,82,0,0,0,130.5,222.5"></path><path id="kity_path_70" fill="none" stroke="rgb(123, 115, 191)" stroke-width="1" d="M369.5,81.5C377.5,81.5,377.5,29.5,385.5,29.5"></path><path id="kity_path_71" fill="none" stroke="rgb(123, 115, 191)" stroke-width="1" d="M369.5,81.5C377.5,81.5,377.5,55.5,385.5,55.5"></path><path id="kity_path_72" fill="none" stroke="rgb(123, 115, 191)" stroke-width="1" d="M369.5,81.5C377.5,81.5,377.5,81.5,385.5,81.5"></path><path id="kity_path_74" fill="none" stroke="rgb(123, 115, 191)" stroke-width="1" d="M369.5,81.5C377.5,81.5,377.5,107.5,385.5,107.5"></path><path id="kity_path_82" fill="none" stroke="rgb(123, 115, 191)" stroke-width="1" d="M369.5,81.5C377.5,81.5,377.5,133.5,385.5,133.5"></path><path id="kity_path_90" fill="none" stroke="rgb(123, 115, 191)" stroke-width="1" d="M341.5,222.5C349.5,222.5,349.5,222.5,357.5,222.5"></path><path id="kity_path_98" fill="none" stroke="rgb(123, 115, 191)" stroke-width="1" d="M416.5,222.5C424.5,222.5,424.5,203.5,432.5,203.5"></path><path id="kity_path_106" fill="none" stroke="rgb(123, 115, 191)" stroke-width="1" d="M416.5,222.5C417.5,222.5,417.5,267.5,418.5,267.5"></path><path id="kity_path_114" fill="none" stroke="rgb(123, 115, 191)" stroke-width="1" d="M467.5,203.5C475.5,203.5,475.5,190.5,483.5,190.5"></path><path id="kity_path_122" fill="none" stroke="rgb(123, 115, 191)" stroke-width="1" d="M627.5,190.5C635.5,190.5,635.5,190.5,643.5,190.5"></path><path id="kity_path_130" fill="none" stroke="rgb(123, 115, 191)" stroke-width="1" d="M467.5,203.5C475.5,203.5,475.5,216.5,483.5,216.5"></path><path id="kity_path_138" fill="none" stroke="rgb(123, 115, 191)" stroke-width="1" d="M579.5,216.5C587.5,216.5,587.5,216.5,595.5,216.5"></path><path id="kity_path_154" fill="none" stroke="rgb(123, 115, 191)" stroke-width="1" d="M894.5,216.5C902.5,216.5,902.5,216.5,910.5,216.5"></path><path id="kity_path_162" fill="none" stroke="rgb(123, 115, 191)" stroke-width="1" d="M1161.5,216.5C1169.5,216.5,1169.5,216.5,1177.5,216.5"></path></g><g id="minder_node1"><path id="node_outline1" fill="rgb(123, 115, 191)" stroke="rgb(123, 115, 191)" d="M25.5,126.5h111a5,5,0,0,1,5,5v18a5,5,0,0,1,-5,5h-111a5,5,0,0,1,-5,-5v-18a5,5,0,0,1,5,-5z" stroke-width="3"></path><g id="node_text1" fill="white"><text id="kity_text_22" text-rendering="inherit" font-size="16" dy=".8em" y="130.09999990463257" x="32.5">系统运行流程</text></g></g><g id="kity_g_14" display="none"><path id="kity_path_15" fill="none" stroke="none" d="M32.5,140.5h0v0h0z"></path><path id="kity_path_16" fill="none" stroke="none"></path></g><g id="minder_node2" opacity="1"><g id="node_expander1" style="cursor: pointer;"><path id="kity_path_36" fill="white" stroke="gray" d="M158.5,81.5A6,6,0,1,1,146.5,81.5A6,6,0,1,1,158.5,81.5"></path><path id="kity_path_37" fill="none" stroke="gray" d="M148,81.5L157,81.5"></path></g><path id="node_outline2" fill="rgb(239, 238, 246)" stroke="rgb(123, 115, 191)" d="M162.5,68.5h204a3,3,0,0,1,3,3v20a3,3,0,0,1,-3,3h-204a3,3,0,0,1,-3,-3v-20a3,3,0,0,1,3,-3z" stroke-width="1"></path><g id="node_text2" fill="black"><text id="kity_text_33" text-rendering="inherit" font-size="14" dy=".8em" y="72.40000009536743" x="179.5">仿真准备、系统初始化阶段</text></g></g><g id="minder_node3" opacity="1"><g id="node_expander2" style="cursor: pointer;"><path id="kity_path_44" fill="white" stroke="gray" d="M131.5,222.5A6,6,0,1,1,119.5,222.5A6,6,0,1,1,131.5,222.5"></path><path id="kity_path_45" fill="none" stroke="gray" d="M121,222.5L130,222.5"></path></g><path id="node_outline3" fill="rgb(239, 238, 246)" stroke="rgb(123, 115, 191)" d="M135.5,209.5h203a3,3,0,0,1,3,3v20a3,3,0,0,1,-3,3h-203a3,3,0,0,1,-3,-3v-20a3,3,0,0,1,3,-3z" stroke-width="1"></path><g id="node_text3" fill="black"><text id="kity_text_41" text-rendering="inherit" font-size="14" dy=".8em" y="213.40000009536743" x="152.5">战情联邦成员发送战情数据</text></g></g><g id="kity_g_12" display="none"><path id="kity_path_13" fill="none" stroke="rgb(71, 66, 112)" d="M375.5,149.5h49a5,5,0,0,1,5,5v8a5,5,0,0,1,-5,5h-49a5,5,0,0,1,-5,-5v-8a5,5,0,0,1,5,-5z" stroke-width="5"></path></g><g id="minder_node4" opacity="1"><g id="node_expander3" style="cursor: pointer;" display="none"><path id="kity_path_52" fill="white" stroke="gray" d="M385.5,29.5A6,6,0,1,1,373.5,29.5A6,6,0,1,1,385.5,29.5"></path><path id="kity_path_53" fill="none" stroke="gray"></path></g><path id="node_outline4" fill="none" stroke="none" d="M390.5,20.5h49a5,5,0,0,1,5,5v8a5,5,0,0,1,-5,5h-49a5,5,0,0,1,-5,-5v-8a5,5,0,0,1,5,-5z" stroke-width="3"></path><g id="node_text4" fill="black"><text id="kity_text_49" text-rendering="inherit" font-size="12" dy=".8em" y="21.700000047683716" x="390.5">创建联邦</text></g></g><g id="minder_node5" opacity="1"><g id="node_expander4" style="cursor: pointer;" display="none"><path id="kity_path_60" fill="white" stroke="gray" d="M385.5,55.5A6,6,0,1,1,373.5,55.5A6,6,0,1,1,385.5,55.5"></path><path id="kity_path_61" fill="none" stroke="gray"></path></g><path id="node_outline5" fill="none" stroke="none" d="M390.5,46.5h49a5,5,0,0,1,5,5v8a5,5,0,0,1,-5,5h-49a5,5,0,0,1,-5,-5v-8a5,5,0,0,1,5,-5z" stroke-width="3"></path><g id="node_text5" fill="black"><text id="kity_text_57" text-rendering="inherit" font-size="12" dy=".8em" y="47.700000047683716" x="390.5">战情配置</text></g></g><g id="minder_node6" opacity="1"><g id="node_expander5" style="cursor: pointer;" display="none"><path id="kity_path_68" fill="white" stroke="gray" d="M385.5,81.5A6,6,0,1,1,373.5,81.5A6,6,0,1,1,385.5,81.5"></path><path id="kity_path_69" fill="none" stroke="gray"></path></g><path id="node_outline6" fill="none" stroke="none" d="M390.5,72.5h49a5,5,0,0,1,5,5v8a5,5,0,0,1,-5,5h-49a5,5,0,0,1,-5,-5v-8a5,5,0,0,1,5,-5z" stroke-width="3"></path><g id="node_text6" fill="black"><text id="kity_text_65" text-rendering="inherit" font-size="12" dy=".8em" y="73.70000004768372" x="390.5">配置雷达</text></g></g><g id="minder_node7"><g id="node_expander6" style="cursor: pointer;" display="none"><path id="kity_path_79" fill="white" stroke="gray" d="M385.5,107.5A6,6,0,1,1,373.5,107.5A6,6,0,1,1,385.5,107.5"></path><path id="kity_path_80" fill="none" stroke="gray"></path></g><path id="node_outline7" fill="none" stroke="none" d="M390.5,98.5h50a5,5,0,0,1,5,5v8a5,5,0,0,1,-5,5h-50a5,5,0,0,1,-5,-5v-8a5,5,0,0,1,5,-5z" stroke-width="3"></path><g id="node_text7" fill="black"><text id="kity_text_76" text-rendering="inherit" font-size="12" dy=".8em" y="99.70000004768372" x="390.5">干扰设备</text></g></g><g id="minder_node8"><g id="node_expander7" style="cursor: pointer;" display="none"><path id="kity_path_87" fill="white" stroke="gray" d="M385.5,133.5A6,6,0,1,1,373.5,133.5A6,6,0,1,1,385.5,133.5"></path><path id="kity_path_88" fill="none" stroke="gray"></path></g><path id="node_outline8" fill="none" stroke="none" d="M390.5,124.5h110a5,5,0,0,1,5,5v8a5,5,0,0,1,-5,5h-110a5,5,0,0,1,-5,-5v-8a5,5,0,0,1,5,-5z" stroke-width="3"></path><g id="node_text8" fill="black"><text id="kity_text_84" text-rendering="inherit" font-size="12" dy=".8em" y="125.70000004768372" x="390.5">数据库存储配置信息</text></g></g><g id="minder_node9"><g id="node_expander8" style="cursor: pointer;"><path id="kity_path_95" fill="white" stroke="gray" d="M357.5,222.5A6,6,0,1,1,345.5,222.5A6,6,0,1,1,357.5,222.5"></path><path id="kity_path_96" fill="none" stroke="gray" d="M347,222.5L356,222.5"></path></g><path id="node_outline9" fill="none" stroke="none" d="M362.5,213.5h49a5,5,0,0,1,5,5v8a5,5,0,0,1,-5,5h-49a5,5,0,0,1,-5,-5v-8a5,5,0,0,1,5,-5z" stroke-width="3"></path><g id="node_text9" fill="black"><text id="kity_text_92" text-rendering="inherit" font-size="12" dy=".8em" y="214.70000004768372" x="362.5">主控成员</text></g></g><g id="minder_node10"><g id="node_expander9" style="cursor: pointer;"><path id="kity_path_103" fill="white" stroke="gray" d="M432.5,203.5A6,6,0,1,1,420.5,203.5A6,6,0,1,1,432.5,203.5"></path><path id="kity_path_104" fill="none" stroke="gray" d="M422,203.5L431,203.5"></path></g><path id="node_outline10" fill="none" stroke="none" d="M437.5,194.5h25a5,5,0,0,1,5,5v8a5,5,0,0,1,-5,5h-25a5,5,0,0,1,-5,-5v-8a5,5,0,0,1,5,-5z" stroke-width="3"></path><g id="node_text10" fill="black"><text id="kity_text_100" text-rendering="inherit" font-size="12" dy=".8em" y="195.70000004768372" x="437.5">雷达</text></g></g><g id="minder_node11" opacity="1"><g id="node_expander10" style="cursor: pointer;" display="none"><path id="kity_path_111" fill="white" stroke="gray" d="M418.5,267.5A6,6,0,1,1,406.5,267.5A6,6,0,1,1,418.5,267.5"></path><path id="kity_path_112" fill="none" stroke="gray"></path></g><path id="node_outline11" fill="none" stroke="none" d="M423.5,258.5h37a5,5,0,0,1,5,5v8a5,5,0,0,1,-5,5h-37a5,5,0,0,1,-5,-5v-8a5,5,0,0,1,5,-5z" stroke-width="3"></path><g id="node_text11" fill="black"><text id="kity_text_108" text-rendering="inherit" font-size="12" dy=".8em" y="259.7000000476837" x="423.5">数据库</text></g></g><g id="minder_node12"><g id="node_expander11" style="cursor: pointer;"><path id="kity_path_119" fill="white" stroke="gray" d="M483.5,190.5A6,6,0,1,1,471.5,190.5A6,6,0,1,1,483.5,190.5"></path><path id="kity_path_120" fill="none" stroke="gray" d="M473,190.5L482,190.5"></path></g><path id="node_outline12" fill="none" stroke="none" d="M488.5,181.5h134a5,5,0,0,1,5,5v8a5,5,0,0,1,-5,5h-134a5,5,0,0,1,-5,-5v-8a5,5,0,0,1,5,-5z" stroke-width="3"></path><g id="node_text12" fill="black"><text id="kity_text_116" text-rendering="inherit" font-size="12" dy=".8em" y="182.70000004768372" x="488.5">产生对干扰机的目标信号</text></g></g><g id="minder_node13"><g id="node_expander12" style="cursor: pointer;" display="none"><path id="kity_path_127" fill="white" stroke="gray" d="M643.5,190.5A6,6,0,1,1,631.5,190.5A6,6,0,1,1,643.5,190.5"></path><path id="kity_path_128" fill="none" stroke="gray"></path></g><path id="node_outline13" fill="none" stroke="none" d="M648.5,181.5h170a5,5,0,0,1,5,5v8a5,5,0,0,1,-5,5h-170a5,5,0,0,1,-5,-5v-8a5,5,0,0,1,5,-5z" stroke-width="3"></path><g id="node_text13" fill="black"><text id="kity_text_124" text-rendering="inherit" font-size="12" dy=".8em" y="182.70000004768372" x="648.5">干扰机处理后返回复杂回波信号</text></g></g><g id="minder_node14"><g id="node_expander13" style="cursor: pointer;"><path id="kity_path_135" fill="white" stroke="gray" d="M483.5,216.5A6,6,0,1,1,471.5,216.5A6,6,0,1,1,483.5,216.5"></path><path id="kity_path_136" fill="none" stroke="gray" d="M473,216.5L482,216.5"></path></g><path id="node_outline14" fill="none" stroke="none" d="M488.5,207.5h86a5,5,0,0,1,5,5v8a5,5,0,0,1,-5,5h-86a5,5,0,0,1,-5,-5v-8a5,5,0,0,1,5,-5z" stroke-width="3"></path><g id="node_text14" fill="black"><text id="kity_text_132" text-rendering="inherit" font-size="12" dy=".8em" y="208.70000004768372" x="488.5">接收到回波数据</text></g></g><g id="minder_node15"><g id="node_expander14" style="cursor: pointer;"><path id="kity_path_143" fill="white" stroke="gray" d="M595.5,216.5A6,6,0,1,1,583.5,216.5A6,6,0,1,1,595.5,216.5"></path><path id="kity_path_144" fill="none" stroke="gray" d="M585,216.5L594,216.5"></path></g><path id="node_outline15" fill="none" stroke="none" d="M600.5,207.5h289a5,5,0,0,1,5,5v8a5,5,0,0,1,-5,5h-289a5,5,0,0,1,-5,-5v-8a5,5,0,0,1,5,-5z" stroke-width="3"></path><g id="node_text15" fill="black"><text id="kity_text_140" text-rendering="inherit" font-size="12" dy=".8em" y="208.70000004768372" x="600.5">一系列处理（正交检波、脉冲压缩、基类、恒虚警率）</text></g></g><g id="minder_node17"><g id="node_expander16" style="cursor: pointer;"><path id="kity_path_159" fill="white" stroke="gray" d="M910.5,216.5A6,6,0,1,1,898.5,216.5A6,6,0,1,1,910.5,216.5"></path><path id="kity_path_160" fill="none" stroke="gray" d="M900,216.5L909,216.5"></path></g><path id="node_outline17" fill="none" stroke="none" d="M915.5,207.5h241a5,5,0,0,1,5,5v8a5,5,0,0,1,-5,5h-241a5,5,0,0,1,-5,-5v-8a5,5,0,0,1,5,-5z" stroke-width="3"></path><g id="node_text17" fill="black"><text id="kity_text_156" text-rendering="inherit" font-size="12" dy=".8em" y="208.70000004768372" x="915.5">雷达数据处理（点迹凝聚、跟踪滤波）与显示</text></g></g><g id="minder_node18"><g id="node_expander17" style="cursor: pointer;" display="none"><path id="kity_path_167" fill="white" stroke="gray" d="M1177.5,216.5A6,6,0,1,1,1165.5,216.5A6,6,0,1,1,1177.5,216.5"></path><path id="kity_path_168" fill="none" stroke="gray"></path></g><path id="node_outline18" fill="none" stroke="none" d="M1182.5,207.5h98a5,5,0,0,1,5,5v8a5,5,0,0,1,-5,5h-98a5,5,0,0,1,-5,-5v-8a5,5,0,0,1,5,-5z" stroke-width="3"></path><g id="node_text18" fill="black"><text id="kity_text_164" text-rendering="inherit" font-size="12" dy=".8em" y="208.70000004768372" x="1182.5">发送给数据库保存</text></g></g></g></g></svg>