<svg id="kity_svg_6" xmlns="http://www.w3.org/2000/svg" xmlns:xlink="http://www.w3.org/1999/xlink" version="1.1" width="762" height="2786" style="background: rgb(251, 251, 251); visibility: visible;" viewBox="0 0 762 2786"><defs id="kity_defs_7"><linearGradient id="kity_linearGradient_17" x1="0" y1="0" x2="0" y2="1"><stop id="kity_stop_18" offset="0" stop-color="rgb(255, 255, 255)"></stop><stop id="kity_stop_19" offset="1" stop-color="rgb(204, 204, 204)"></stop></linearGradient><marker id="kity_marker_2" orient="auto" refX="6" refY="0" viewBox="-7 -7 14 14" markerWidth="7" markerHeight="7" markerUnits="userSpaceOnUse"><path id="kity_path_3" fill="rgb(191, 115, 148)" stroke="none" d="M6,0A6,6,0,1,1,-6,0A6,6,0,1,1,6,0"></path></marker></defs><g id="kity_g_8"><g id="minder1" text-rendering="optimize-speed"><g id="minder_connect_group1"><path id="kity_path_31" fill="none" stroke="rgb(191, 115, 148)" stroke-width="1" d="M108.5,1744.5A206,907,0,0,1,314.5,837.5"></path><path id="kity_path_33" fill="none" stroke="rgb(191, 115, 148)" stroke-width="1" d="M413.5,837.5C433.5,837.5,433.5,31.5,453.5,31.5"></path><path id="kity_path_35" fill="none" stroke="rgb(191, 115, 148)" stroke-width="1" d="M413.5,837.5C433.5,837.5,433.5,83.5,453.5,83.5"></path><path id="kity_path_37" fill="none" stroke="rgb(191, 115, 148)" stroke-width="1" d="M413.5,837.5C433.5,837.5,433.5,265.5,453.5,265.5"></path><path id="kity_path_39" fill="none" stroke="rgb(191, 115, 148)" stroke-width="1" d="M511.5,265.5C531.5,265.5,531.5,135.5,551.5,135.5"></path><path id="kity_path_41" fill="none" stroke="rgb(191, 115, 148)" stroke-width="1" d="M511.5,265.5C531.5,265.5,531.5,187.5,551.5,187.5"></path><path id="kity_path_43" fill="none" stroke="rgb(191, 115, 148)" stroke-width="1" d="M511.5,265.5C531.5,265.5,531.5,239.5,551.5,239.5"></path><path id="kity_path_45" fill="none" stroke="rgb(191, 115, 148)" stroke-width="1" d="M511.5,265.5C531.5,265.5,531.5,291.5,551.5,291.5"></path><path id="kity_path_47" fill="none" stroke="rgb(191, 115, 148)" stroke-width="1" d="M511.5,265.5C531.5,265.5,531.5,343.5,551.5,343.5"></path><path id="kity_path_49" fill="none" stroke="rgb(191, 115, 148)" stroke-width="1" d="M511.5,265.5C531.5,265.5,531.5,395.5,551.5,395.5"></path><path id="kity_path_51" fill="none" stroke="rgb(191, 115, 148)" stroke-width="1" d="M413.5,837.5C433.5,837.5,433.5,629.5,453.5,629.5"></path><path id="kity_path_53" fill="none" stroke="rgb(191, 115, 148)" stroke-width="1" d="M523.5,629.5C543.5,629.5,543.5,447.5,563.5,447.5"></path><path id="kity_path_55" fill="none" stroke="rgb(191, 115, 148)" stroke-width="1" d="M523.5,629.5C543.5,629.5,543.5,499.5,563.5,499.5"></path><path id="kity_path_57" fill="none" stroke="rgb(191, 115, 148)" stroke-width="1" d="M523.5,629.5C543.5,629.5,543.5,551.5,563.5,551.5"></path><path id="kity_path_59" fill="none" stroke="rgb(191, 115, 148)" stroke-width="1" d="M523.5,629.5C543.5,629.5,543.5,603.5,563.5,603.5"></path><path id="kity_path_61" fill="none" stroke="rgb(191, 115, 148)" stroke-width="1" d="M523.5,629.5C543.5,629.5,543.5,655.5,563.5,655.5"></path><path id="kity_path_63" fill="none" stroke="rgb(191, 115, 148)" stroke-width="1" d="M523.5,629.5C543.5,629.5,543.5,707.5,563.5,707.5"></path><path id="kity_path_65" fill="none" stroke="rgb(191, 115, 148)" stroke-width="1" d="M523.5,629.5C543.5,629.5,543.5,759.5,563.5,759.5"></path><path id="kity_path_67" fill="none" stroke="rgb(191, 115, 148)" stroke-width="1" d="M523.5,629.5C543.5,629.5,543.5,811.5,563.5,811.5"></path><path id="kity_path_69" fill="none" stroke="rgb(191, 115, 148)" stroke-width="1" d="M413.5,837.5C433.5,837.5,433.5,1045.5,453.5,1045.5"></path><path id="kity_path_71" fill="none" stroke="rgb(191, 115, 148)" stroke-width="1" d="M523.5,1045.5C543.5,1045.5,543.5,863.5,563.5,863.5"></path><path id="kity_path_73" fill="none" stroke="rgb(191, 115, 148)" stroke-width="1" d="M523.5,1045.5C543.5,1045.5,543.5,915.5,563.5,915.5"></path><path id="kity_path_75" fill="none" stroke="rgb(191, 115, 148)" stroke-width="1" d="M523.5,1045.5C543.5,1045.5,543.5,967.5,563.5,967.5"></path><path id="kity_path_77" fill="none" stroke="rgb(191, 115, 148)" stroke-width="1" d="M523.5,1045.5C543.5,1045.5,543.5,1019.5,563.5,1019.5"></path><path id="kity_path_79" fill="none" stroke="rgb(191, 115, 148)" stroke-width="1" d="M523.5,1045.5C543.5,1045.5,543.5,1071.5,563.5,1071.5"></path><path id="kity_path_81" fill="none" stroke="rgb(191, 115, 148)" stroke-width="1" d="M523.5,1045.5C543.5,1045.5,543.5,1123.5,563.5,1123.5"></path><path id="kity_path_83" fill="none" stroke="rgb(191, 115, 148)" stroke-width="1" d="M523.5,1045.5C543.5,1045.5,543.5,1175.5,563.5,1175.5"></path><path id="kity_path_85" fill="none" stroke="rgb(191, 115, 148)" stroke-width="1" d="M523.5,1045.5C543.5,1045.5,543.5,1227.5,563.5,1227.5"></path><path id="kity_path_87" fill="none" stroke="rgb(191, 115, 148)" stroke-width="1" d="M413.5,837.5C433.5,837.5,433.5,1331.5,453.5,1331.5"></path><path id="kity_path_89" fill="none" stroke="rgb(191, 115, 148)" stroke-width="1" d="M498.5,1331.5C518.5,1331.5,518.5,1279.5,538.5,1279.5"></path><path id="kity_path_91" fill="none" stroke="rgb(191, 115, 148)" stroke-width="1" d="M498.5,1331.5C518.5,1331.5,518.5,1331.5,538.5,1331.5"></path><path id="kity_path_93" fill="none" stroke="rgb(191, 115, 148)" stroke-width="1" d="M498.5,1331.5C518.5,1331.5,518.5,1383.5,538.5,1383.5"></path><path id="kity_path_95" fill="none" stroke="rgb(191, 115, 148)" stroke-width="1" d="M413.5,837.5C433.5,837.5,433.5,1435.5,453.5,1435.5"></path><path id="kity_path_97" fill="none" stroke="rgb(191, 115, 148)" stroke-width="1" d="M413.5,837.5C433.5,837.5,433.5,1643.5,453.5,1643.5"></path><path id="kity_path_99" fill="none" stroke="rgb(191, 115, 148)" stroke-width="1" d="M559.5,1643.5C579.5,1643.5,579.5,1487.5,599.5,1487.5"></path><path id="kity_path_101" fill="none" stroke="rgb(191, 115, 148)" stroke-width="1" d="M559.5,1643.5C579.5,1643.5,579.5,1539.5,599.5,1539.5"></path><path id="kity_path_103" fill="none" stroke="rgb(191, 115, 148)" stroke-width="1" d="M559.5,1643.5C579.5,1643.5,579.5,1591.5,599.5,1591.5"></path><path id="kity_path_105" fill="none" stroke="rgb(191, 115, 148)" stroke-width="1" d="M559.5,1643.5C579.5,1643.5,579.5,1643.5,599.5,1643.5"></path><path id="kity_path_107" fill="none" stroke="rgb(191, 115, 148)" stroke-width="1" d="M559.5,1643.5C579.5,1643.5,579.5,1695.5,599.5,1695.5"></path><path id="kity_path_109" fill="none" stroke="rgb(191, 115, 148)" stroke-width="1" d="M559.5,1643.5C579.5,1643.5,579.5,1747.5,599.5,1747.5"></path><path id="kity_path_111" fill="none" stroke="rgb(191, 115, 148)" stroke-width="1" d="M559.5,1643.5C579.5,1643.5,579.5,1799.5,599.5,1799.5"></path><path id="kity_path_113" fill="none" stroke="rgb(191, 115, 148)" stroke-width="1" d="M108.5,1744.5A206,442,0,0,0,314.5,2186.5"></path><path id="kity_path_115" fill="none" stroke="rgb(191, 115, 148)" stroke-width="1" d="M455.5,2186.5C475.5,2186.5,475.5,1965.5,495.5,1965.5"></path><path id="kity_path_117" fill="none" stroke="rgb(191, 115, 148)" stroke-width="1" d="M564.5,1965.5C584.5,1965.5,584.5,1861.5,604.5,1861.5"></path><path id="kity_path_119" fill="none" stroke="rgb(191, 115, 148)" stroke-width="1" d="M564.5,1965.5C584.5,1965.5,584.5,1913.5,604.5,1913.5"></path><path id="kity_path_121" fill="none" stroke="rgb(191, 115, 148)" stroke-width="1" d="M564.5,1965.5C584.5,1965.5,584.5,1965.5,604.5,1965.5"></path><path id="kity_path_123" fill="none" stroke="rgb(191, 115, 148)" stroke-width="1" d="M564.5,1965.5C584.5,1965.5,584.5,2017.5,604.5,2017.5"></path><path id="kity_path_125" fill="none" stroke="rgb(191, 115, 148)" stroke-width="1" d="M564.5,1965.5C584.5,1965.5,584.5,2069.5,604.5,2069.5"></path><path id="kity_path_127" fill="none" stroke="rgb(191, 115, 148)" stroke-width="1" d="M455.5,2186.5C475.5,2186.5,475.5,2199.5,495.5,2199.5"></path><path id="kity_path_129" fill="none" stroke="rgb(191, 115, 148)" stroke-width="1" d="M589.5,2199.5C609.5,2199.5,609.5,2121.5,629.5,2121.5"></path><path id="kity_path_131" fill="none" stroke="rgb(191, 115, 148)" stroke-width="1" d="M589.5,2199.5C609.5,2199.5,609.5,2173.5,629.5,2173.5"></path><path id="kity_path_133" fill="none" stroke="rgb(191, 115, 148)" stroke-width="1" d="M589.5,2199.5C609.5,2199.5,609.5,2225.5,629.5,2225.5"></path><path id="kity_path_135" fill="none" stroke="rgb(191, 115, 148)" stroke-width="1" d="M589.5,2199.5C609.5,2199.5,609.5,2277.5,629.5,2277.5"></path><path id="kity_path_137" fill="none" stroke="rgb(191, 115, 148)" stroke-width="1" d="M455.5,2186.5C475.5,2186.5,475.5,2407.5,495.5,2407.5"></path><path id="kity_path_139" fill="none" stroke="rgb(191, 115, 148)" stroke-width="1" d="M565.5,2407.5C585.5,2407.5,585.5,2329.5,605.5,2329.5"></path><path id="kity_path_141" fill="none" stroke="rgb(191, 115, 148)" stroke-width="1" d="M565.5,2407.5C585.5,2407.5,585.5,2381.5,605.5,2381.5"></path><path id="kity_path_143" fill="none" stroke="rgb(191, 115, 148)" stroke-width="1" d="M565.5,2407.5C585.5,2407.5,585.5,2433.5,605.5,2433.5"></path><path id="kity_path_145" fill="none" stroke="rgb(191, 115, 148)" stroke-width="1" d="M565.5,2407.5C585.5,2407.5,585.5,2485.5,605.5,2485.5"></path><path id="kity_path_147" fill="none" stroke="rgb(191, 115, 148)" stroke-width="1" d="M108.5,1744.5A206,907,0,0,0,314.5,2651.5"></path><path id="kity_path_149" fill="none" stroke="rgb(191, 115, 148)" stroke-width="1" d="M441.5,2651.5C461.5,2651.5,461.5,2547.5,481.5,2547.5"></path><path id="kity_path_151" fill="none" stroke="rgb(191, 115, 148)" stroke-width="1" d="M441.5,2651.5C461.5,2651.5,461.5,2599.5,481.5,2599.5"></path><path id="kity_path_153" fill="none" stroke="rgb(191, 115, 148)" stroke-width="1" d="M441.5,2651.5C461.5,2651.5,461.5,2651.5,481.5,2651.5"></path><path id="kity_path_155" fill="none" stroke="rgb(191, 115, 148)" stroke-width="1" d="M441.5,2651.5C461.5,2651.5,461.5,2703.5,481.5,2703.5"></path><path id="kity_path_157" fill="none" stroke="rgb(191, 115, 148)" stroke-width="1" d="M441.5,2651.5C461.5,2651.5,461.5,2755.5,481.5,2755.5"></path></g><g id="minder_node1"><path id="node_outline1" fill="rgb(191, 115, 148)" stroke="rgb(96, 57, 74)" d="M25.5,1724.5h166a5,5,0,0,1,5,5v30a5,5,0,0,1,-5,5h-166a5,5,0,0,1,-5,-5v-30a5,5,0,0,1,5,-5z" stroke-width="3"></path><g id="node_text1" fill="white"><text id="kity_text_22" text-rendering="inherit" font-size="16" dy=".8em" y="1734.0999999046326" x="44.5">雷达对抗仿真模型</text></g></g><g id="kity_g_12"><path id="kity_path_13" fill="none" stroke="none" d="M44.5,1744.5h0v0h0z"></path></g><g id="kity_g_14"><path id="kity_path_15" fill="none" stroke="none" d="M44.5,1744.5h0v0h0z"></path><path id="kity_path_16" fill="none" stroke="none"></path></g><g id="minder_node2"><g id="node_expander41" style="cursor: pointer;"><path id="kity_path_471" fill="white" stroke="gray" d="M315.5,837.5A6,6,0,1,1,303.5,837.5A6,6,0,1,1,315.5,837.5"></path><path id="kity_path_472" fill="none" stroke="gray" d="M305,837.5L314,837.5"></path></g><path id="node_outline42" fill="rgb(246, 238, 242)" stroke="rgb(191, 115, 148)" d="M319.5,824.5h91a3,3,0,0,1,3,3v20a3,3,0,0,1,-3,3h-91a3,3,0,0,1,-3,-3v-20a3,3,0,0,1,3,-3z" stroke-width="1"></path><g id="node_text42" fill="black"><text id="kity_text_239" text-rendering="inherit" font-size="14" dy=".8em" y="828.4000000953674" x="336.5">雷达系统</text></g></g><g id="minder_node3"><g id="node_expander1" display="none" style="cursor: pointer;"><path id="kity_path_351" fill="white" stroke="gray" d="M453.5,31.5A6,6,0,1,1,441.5,31.5A6,6,0,1,1,453.5,31.5"></path><path id="kity_path_352" fill="none" stroke="gray"></path></g><path id="node_outline2" fill="none" stroke="none" d="M458.5,20.5h36a5,5,0,0,1,5,5v12a5,5,0,0,1,-5,5h-36a5,5,0,0,1,-5,-5v-12a5,5,0,0,1,5,-5z"></path><g id="node_text2" fill="black"><text id="kity_text_159" text-rendering="inherit" font-size="12" dy=".8em" y="23.700000047683716" x="463.5">天线</text></g></g><g id="minder_node4"><g id="node_expander2" display="none" style="cursor: pointer;"><path id="kity_path_354" fill="white" stroke="gray" d="M453.5,83.5A6,6,0,1,1,441.5,83.5A6,6,0,1,1,453.5,83.5"></path><path id="kity_path_355" fill="none" stroke="gray"></path></g><path id="node_outline3" fill="none" stroke="none" d="M458.5,72.5h48a5,5,0,0,1,5,5v12a5,5,0,0,1,-5,5h-48a5,5,0,0,1,-5,-5v-12a5,5,0,0,1,5,-5z"></path><g id="node_text3" fill="black"><text id="kity_text_161" text-rendering="inherit" font-size="12" dy=".8em" y="75.70000004768372" x="463.5">发射机</text></g></g><g id="minder_node5"><g id="node_expander9" style="cursor: pointer;"><path id="kity_path_375" fill="white" stroke="gray" d="M453.5,265.5A6,6,0,1,1,441.5,265.5A6,6,0,1,1,453.5,265.5"></path><path id="kity_path_376" fill="none" stroke="gray" d="M443,265.5L452,265.5"></path></g><path id="node_outline10" fill="none" stroke="none" d="M458.5,254.5h48a5,5,0,0,1,5,5v12a5,5,0,0,1,-5,5h-48a5,5,0,0,1,-5,-5v-12a5,5,0,0,1,5,-5z"></path><g id="node_text10" fill="black"><text id="kity_text_175" text-rendering="inherit" font-size="12" dy=".8em" y="257.7000000476837" x="463.5">接收机</text></g></g><g id="minder_node6"><g id="node_expander3" display="none" style="cursor: pointer;"><path id="kity_path_357" fill="white" stroke="gray" d="M551.5,135.5A6,6,0,1,1,539.5,135.5A6,6,0,1,1,551.5,135.5"></path><path id="kity_path_358" fill="none" stroke="gray"></path></g><path id="node_outline4" fill="none" stroke="none" d="M556.5,124.5h59a5,5,0,0,1,5,5v12a5,5,0,0,1,-5,5h-59a5,5,0,0,1,-5,-5v-12a5,5,0,0,1,5,-5z"></path><g id="node_text4" fill="black"><text id="kity_text_163" text-rendering="inherit" font-size="12" dy=".8em" y="127.70000004768372" x="561.5">噪声系数</text></g></g><g id="minder_node7"><g id="node_expander4" display="none" style="cursor: pointer;"><path id="kity_path_360" fill="white" stroke="gray" d="M551.5,187.5A6,6,0,1,1,539.5,187.5A6,6,0,1,1,551.5,187.5"></path><path id="kity_path_361" fill="none" stroke="gray"></path></g><path id="node_outline5" fill="none" stroke="none" d="M556.5,176.5h95a5,5,0,0,1,5,5v12a5,5,0,0,1,-5,5h-95a5,5,0,0,1,-5,-5v-12a5,5,0,0,1,5,-5z"></path><g id="node_text5" fill="black"><text id="kity_text_165" text-rendering="inherit" font-size="12" dy=".8em" y="179.70000004768372" x="561.5">灵敏度时间控制</text></g></g><g id="minder_node8"><g id="node_expander5" display="none" style="cursor: pointer;"><path id="kity_path_363" fill="white" stroke="gray" d="M551.5,239.5A6,6,0,1,1,539.5,239.5A6,6,0,1,1,551.5,239.5"></path><path id="kity_path_364" fill="none" stroke="gray"></path></g><path id="node_outline6" fill="none" stroke="none" d="M556.5,228.5h82a5,5,0,0,1,5,5v12a5,5,0,0,1,-5,5h-82a5,5,0,0,1,-5,-5v-12a5,5,0,0,1,5,-5z"></path><g id="node_text6" fill="black"><text id="kity_text_167" text-rendering="inherit" font-size="12" dy=".8em" y="231.70000004768372" x="561.5">自动增益控制</text></g></g><g id="minder_node9"><g id="node_expander6" display="none" style="cursor: pointer;"><path id="kity_path_366" fill="white" stroke="gray" d="M551.5,291.5A6,6,0,1,1,539.5,291.5A6,6,0,1,1,551.5,291.5"></path><path id="kity_path_367" fill="none" stroke="gray"></path></g><path id="node_outline7" fill="none" stroke="none" d="M556.5,280.5h48a5,5,0,0,1,5,5v12a5,5,0,0,1,-5,5h-48a5,5,0,0,1,-5,-5v-12a5,5,0,0,1,5,-5z"></path><g id="node_text7" fill="black"><text id="kity_text_169" text-rendering="inherit" font-size="12" dy=".8em" y="283.7000000476837" x="561.5">非线性</text></g></g><g id="minder_node10"><g id="node_expander7" display="none" style="cursor: pointer;"><path id="kity_path_369" fill="white" stroke="gray" d="M551.5,343.5A6,6,0,1,1,539.5,343.5A6,6,0,1,1,551.5,343.5"></path><path id="kity_path_370" fill="none" stroke="gray"></path></g><path id="node_outline8" fill="none" stroke="none" d="M556.5,332.5h71a5,5,0,0,1,5,5v12a5,5,0,0,1,-5,5h-71a5,5,0,0,1,-5,-5v-12a5,5,0,0,1,5,-5z"></path><g id="node_text8" fill="black"><text id="kity_text_171" text-rendering="inherit" font-size="12" dy=".8em" y="335.7000000476837" x="561.5">匹配滤波器</text></g></g><g id="minder_node11"><g id="node_expander8" display="none" style="cursor: pointer;"><path id="kity_path_372" fill="white" stroke="gray" d="M551.5,395.5A6,6,0,1,1,539.5,395.5A6,6,0,1,1,551.5,395.5"></path><path id="kity_path_373" fill="none" stroke="gray"></path></g><path id="node_outline9" fill="none" stroke="none" d="M556.5,384.5h84a5,5,0,0,1,5,5v12a5,5,0,0,1,-5,5h-84a5,5,0,0,1,-5,-5v-12a5,5,0,0,1,5,-5z"></path><g id="node_text9" fill="black"><text id="kity_text_173" text-rendering="inherit" font-size="12" dy=".8em" y="387.7000000476837" x="561.5">非匹配滤波器</text></g></g><g id="minder_node12"><g id="node_expander18" style="cursor: pointer;"><path id="kity_path_402" fill="white" stroke="gray" d="M453.5,629.5A6,6,0,1,1,441.5,629.5A6,6,0,1,1,453.5,629.5"></path><path id="kity_path_403" fill="none" stroke="gray" d="M443,629.5L452,629.5"></path></g><path id="node_outline19" fill="none" stroke="none" d="M458.5,618.5h60a5,5,0,0,1,5,5v12a5,5,0,0,1,-5,5h-60a5,5,0,0,1,-5,-5v-12a5,5,0,0,1,5,-5z"></path><g id="node_text19" fill="black"><text id="kity_text_193" text-rendering="inherit" font-size="12" dy=".8em" y="621.7000000476837" x="463.5">信号处理</text></g></g><g id="minder_node13"><g id="node_expander10" display="none" style="cursor: pointer;"><path id="kity_path_378" fill="white" stroke="gray" d="M563.5,447.5A6,6,0,1,1,551.5,447.5A6,6,0,1,1,563.5,447.5"></path><path id="kity_path_379" fill="none" stroke="gray"></path></g><path id="node_outline11" fill="none" stroke="none" d="M568.5,436.5h96a5,5,0,0,1,5,5v12a5,5,0,0,1,-5,5h-96a5,5,0,0,1,-5,-5v-12a5,5,0,0,1,5,-5z"></path><g id="node_text11" fill="black"><text id="kity_text_177" text-rendering="inherit" font-size="12" dy=".8em" y="439.7000000476837" x="573.5">杂波前置滤波器</text></g></g><g id="minder_node14"><g id="node_expander11" display="none" style="cursor: pointer;"><path id="kity_path_381" fill="white" stroke="gray" d="M563.5,499.5A6,6,0,1,1,551.5,499.5A6,6,0,1,1,563.5,499.5"></path><path id="kity_path_382" fill="none" stroke="gray"></path></g><path id="node_outline12" fill="none" stroke="none" d="M568.5,488.5h59a5,5,0,0,1,5,5v12a5,5,0,0,1,-5,5h-59a5,5,0,0,1,-5,-5v-12a5,5,0,0,1,5,-5z"></path><g id="node_text12" fill="black"><text id="kity_text_179" text-rendering="inherit" font-size="12" dy=".8em" y="491.7000000476837" x="573.5">A/D变换</text></g></g><g id="minder_node15"><g id="node_expander12" display="none" style="cursor: pointer;"><path id="kity_path_384" fill="white" stroke="gray" d="M563.5,551.5A6,6,0,1,1,551.5,551.5A6,6,0,1,1,563.5,551.5"></path><path id="kity_path_385" fill="none" stroke="gray"></path></g><path id="node_outline13" fill="none" stroke="none" d="M568.5,540.5h71a5,5,0,0,1,5,5v12a5,5,0,0,1,-5,5h-71a5,5,0,0,1,-5,-5v-12a5,5,0,0,1,5,-5z"></path><g id="node_text13" fill="black"><text id="kity_text_181" text-rendering="inherit" font-size="12" dy=".8em" y="543.7000000476837" x="573.5">匹配滤波器</text></g></g><g id="minder_node16"><g id="node_expander13" display="none" style="cursor: pointer;"><path id="kity_path_387" fill="white" stroke="gray" d="M563.5,603.5A6,6,0,1,1,551.5,603.5A6,6,0,1,1,563.5,603.5"></path><path id="kity_path_388" fill="none" stroke="gray"></path></g><path id="node_outline14" fill="none" stroke="none" d="M568.5,592.5h84a5,5,0,0,1,5,5v12a5,5,0,0,1,-5,5h-84a5,5,0,0,1,-5,-5v-12a5,5,0,0,1,5,-5z"></path><g id="node_text14" fill="black"><text id="kity_text_183" text-rendering="inherit" font-size="12" dy=".8em" y="595.7000000476837" x="573.5">非匹配滤波器</text></g></g><g id="minder_node17"><g id="node_expander14" display="none" style="cursor: pointer;"><path id="kity_path_390" fill="white" stroke="gray" d="M563.5,655.5A6,6,0,1,1,551.5,655.5A6,6,0,1,1,563.5,655.5"></path><path id="kity_path_391" fill="none" stroke="gray"></path></g><path id="node_outline15" fill="none" stroke="none" d="M568.5,644.5h71a5,5,0,0,1,5,5v12a5,5,0,0,1,-5,5h-71a5,5,0,0,1,-5,-5v-12a5,5,0,0,1,5,-5z"></path><g id="node_text15" fill="black"><text id="kity_text_185" text-rendering="inherit" font-size="12" dy=".8em" y="647.7000000476837" x="573.5">多普勒处理</text></g></g><g id="minder_node18"><g id="node_expander15" display="none" style="cursor: pointer;"><path id="kity_path_393" fill="white" stroke="gray" d="M563.5,707.5A6,6,0,1,1,551.5,707.5A6,6,0,1,1,563.5,707.5"></path><path id="kity_path_394" fill="none" stroke="gray"></path></g><path id="node_outline16" fill="none" stroke="none" d="M568.5,696.5h84a5,5,0,0,1,5,5v12a5,5,0,0,1,-5,5h-84a5,5,0,0,1,-5,-5v-12a5,5,0,0,1,5,-5z"></path><g id="node_text16" fill="black"><text id="kity_text_187" text-rendering="inherit" font-size="12" dy=".8em" y="699.7000000476837" x="573.5">模拟滤波器带</text></g></g><g id="minder_node19"><g id="node_expander16" display="none" style="cursor: pointer;"><path id="kity_path_396" fill="white" stroke="gray" d="M563.5,759.5A6,6,0,1,1,551.5,759.5A6,6,0,1,1,563.5,759.5"></path><path id="kity_path_397" fill="none" stroke="gray"></path></g><path id="node_outline17" fill="none" stroke="none" d="M568.5,748.5h84a5,5,0,0,1,5,5v12a5,5,0,0,1,-5,5h-84a5,5,0,0,1,-5,-5v-12a5,5,0,0,1,5,-5z"></path><g id="node_text17" fill="black"><text id="kity_text_189" text-rendering="inherit" font-size="12" dy=".8em" y="751.7000000476837" x="573.5">数字滤波器带</text></g></g><g id="minder_node20"><g id="node_expander17" display="none" style="cursor: pointer;"><path id="kity_path_399" fill="white" stroke="gray" d="M563.5,811.5A6,6,0,1,1,551.5,811.5A6,6,0,1,1,563.5,811.5"></path><path id="kity_path_400" fill="none" stroke="gray"></path></g><path id="node_outline18" fill="none" stroke="none" d="M568.5,800.5h57a5,5,0,0,1,5,5v12a5,5,0,0,1,-5,5h-57a5,5,0,0,1,-5,-5v-12a5,5,0,0,1,5,-5z"></path><g id="node_text18" fill="black"><text id="kity_text_191" text-rendering="inherit" font-size="12" dy=".8em" y="803.7000000476837" x="573.5">DFT/FFT</text></g></g><g id="minder_node21"><g id="node_expander27" style="cursor: pointer;"><path id="kity_path_429" fill="white" stroke="gray" d="M453.5,1045.5A6,6,0,1,1,441.5,1045.5A6,6,0,1,1,453.5,1045.5"></path><path id="kity_path_430" fill="none" stroke="gray" d="M443,1045.5L452,1045.5"></path></g><path id="node_outline28" fill="none" stroke="none" d="M458.5,1034.5h60a5,5,0,0,1,5,5v12a5,5,0,0,1,-5,5h-60a5,5,0,0,1,-5,-5v-12a5,5,0,0,1,5,-5z"></path><g id="node_text28" fill="black"><text id="kity_text_211" text-rendering="inherit" font-size="12" dy=".8em" y="1037.7000000476837" x="463.5">数据处理</text></g></g><g id="minder_node22"><g id="node_expander19" display="none" style="cursor: pointer;"><path id="kity_path_405" fill="white" stroke="gray" d="M563.5,863.5A6,6,0,1,1,551.5,863.5A6,6,0,1,1,563.5,863.5"></path><path id="kity_path_406" fill="none" stroke="gray"></path></g><path id="node_outline20" fill="none" stroke="none" d="M568.5,852.5h60a5,5,0,0,1,5,5v12a5,5,0,0,1,-5,5h-60a5,5,0,0,1,-5,-5v-12a5,5,0,0,1,5,-5z"></path><g id="node_text20" fill="black"><text id="kity_text_195" text-rendering="inherit" font-size="12" dy=".8em" y="855.7000000476837" x="573.5">检测门限</text></g></g><g id="minder_node23"><g id="node_expander20" display="none" style="cursor: pointer;"><path id="kity_path_408" fill="white" stroke="gray" d="M563.5,915.5A6,6,0,1,1,551.5,915.5A6,6,0,1,1,563.5,915.5"></path><path id="kity_path_409" fill="none" stroke="gray"></path></g><path id="node_outline21" fill="none" stroke="none" d="M568.5,904.5h59a5,5,0,0,1,5,5v12a5,5,0,0,1,-5,5h-59a5,5,0,0,1,-5,-5v-12a5,5,0,0,1,5,-5z"></path><g id="node_text21" fill="black"><text id="kity_text_197" text-rendering="inherit" font-size="12" dy=".8em" y="907.7000000476837" x="573.5">距离平均</text></g></g><g id="minder_node24"><g id="node_expander21" display="none" style="cursor: pointer;"><path id="kity_path_411" fill="white" stroke="gray" d="M563.5,967.5A6,6,0,1,1,551.5,967.5A6,6,0,1,1,563.5,967.5"></path><path id="kity_path_412" fill="none" stroke="gray"></path></g><path id="node_outline22" fill="none" stroke="none" d="M568.5,956.5h70a5,5,0,0,1,5,5v12a5,5,0,0,1,-5,5h-70a5,5,0,0,1,-5,-5v-12a5,5,0,0,1,5,-5z"></path><g id="node_text22" fill="black"><text id="kity_text_199" text-rendering="inherit" font-size="12" dy=".8em" y="959.7000000476837" x="573.5">多普勒平均</text></g></g><g id="minder_node25"><g id="node_expander22" display="none" style="cursor: pointer;"><path id="kity_path_414" fill="white" stroke="gray" d="M563.5,1019.5A6,6,0,1,1,551.5,1019.5A6,6,0,1,1,563.5,1019.5"></path><path id="kity_path_415" fill="none" stroke="gray"></path></g><path id="node_outline23" fill="none" stroke="none" d="M568.5,1008.5h95a5,5,0,0,1,5,5v12a5,5,0,0,1,-5,5h-95a5,5,0,0,1,-5,-5v-12a5,5,0,0,1,5,-5z"></path><g id="node_text23" fill="black"><text id="kity_text_201" text-rendering="inherit" font-size="12" dy=".8em" y="1011.7000000476837" x="573.5">距离多普勒平均</text></g></g><g id="minder_node26"><g id="node_expander23" display="none" style="cursor: pointer;"><path id="kity_path_417" fill="white" stroke="gray" d="M563.5,1071.5A6,6,0,1,1,551.5,1071.5A6,6,0,1,1,563.5,1071.5"></path><path id="kity_path_418" fill="none" stroke="gray"></path></g><path id="node_outline24" fill="none" stroke="none" d="M568.5,1060.5h70a5,5,0,0,1,5,5v12a5,5,0,0,1,-5,5h-70a5,5,0,0,1,-5,-5v-12a5,5,0,0,1,5,-5z"></path><g id="node_text24" fill="black"><text id="kity_text_203" text-rendering="inherit" font-size="12" dy=".8em" y="1063.7000000476837" x="573.5">多脉冲平均</text></g></g><g id="minder_node27"><g id="node_expander24" display="none" style="cursor: pointer;"><path id="kity_path_420" fill="white" stroke="gray" d="M563.5,1123.5A6,6,0,1,1,551.5,1123.5A6,6,0,1,1,563.5,1123.5"></path><path id="kity_path_421" fill="none" stroke="gray"></path></g><path id="node_outline25" fill="none" stroke="none" d="M568.5,1112.5h70a5,5,0,0,1,5,5v12a5,5,0,0,1,-5,5h-70a5,5,0,0,1,-5,-5v-12a5,5,0,0,1,5,-5z"></path><g id="node_text25" fill="black"><text id="kity_text_205" text-rendering="inherit" font-size="12" dy=".8em" y="1115.7000000476837" x="573.5">多脉冲积累</text></g></g><g id="minder_node28"><g id="node_expander25" display="none" style="cursor: pointer;"><path id="kity_path_423" fill="white" stroke="gray" d="M563.5,1175.5A6,6,0,1,1,551.5,1175.5A6,6,0,1,1,563.5,1175.5"></path><path id="kity_path_424" fill="none" stroke="gray"></path></g><path id="node_outline26" fill="none" stroke="none" d="M568.5,1164.5h84a5,5,0,0,1,5,5v12a5,5,0,0,1,-5,5h-84a5,5,0,0,1,-5,-5v-12a5,5,0,0,1,5,-5z"></path><g id="node_text26" fill="black"><text id="kity_text_207" text-rendering="inherit" font-size="12" dy=".8em" y="1167.7000000476837" x="573.5">距离跟踪处理</text></g></g><g id="minder_node29"><g id="node_expander26" display="none" style="cursor: pointer;"><path id="kity_path_426" fill="white" stroke="gray" d="M563.5,1227.5A6,6,0,1,1,551.5,1227.5A6,6,0,1,1,563.5,1227.5"></path><path id="kity_path_427" fill="none" stroke="gray"></path></g><path id="node_outline27" fill="none" stroke="none" d="M568.5,1216.5h84a5,5,0,0,1,5,5v12a5,5,0,0,1,-5,5h-84a5,5,0,0,1,-5,-5v-12a5,5,0,0,1,5,-5z"></path><g id="node_text27" fill="black"><text id="kity_text_209" text-rendering="inherit" font-size="12" dy=".8em" y="1219.7000000476837" x="573.5">角度跟踪处理</text></g></g><g id="minder_node30"><g id="node_expander31" style="cursor: pointer;"><path id="kity_path_441" fill="white" stroke="gray" d="M453.5,1331.5A6,6,0,1,1,441.5,1331.5A6,6,0,1,1,453.5,1331.5"></path><path id="kity_path_442" fill="none" stroke="gray" d="M443,1331.5L452,1331.5"></path></g><path id="node_outline32" fill="none" stroke="none" d="M458.5,1320.5h35a5,5,0,0,1,5,5v12a5,5,0,0,1,-5,5h-35a5,5,0,0,1,-5,-5v-12a5,5,0,0,1,5,-5z"></path><g id="node_text32" fill="black"><text id="kity_text_219" text-rendering="inherit" font-size="12" dy=".8em" y="1323.7000000476837" x="463.5">显示</text></g></g><g id="minder_node31"><g id="node_expander28" display="none" style="cursor: pointer;"><path id="kity_path_432" fill="white" stroke="gray" d="M538.5,1279.5A6,6,0,1,1,526.5,1279.5A6,6,0,1,1,538.5,1279.5"></path><path id="kity_path_433" fill="none" stroke="gray"></path></g><path id="node_outline29" fill="none" stroke="none" d="M543.5,1268.5h28a5,5,0,0,1,5,5v12a5,5,0,0,1,-5,5h-28a5,5,0,0,1,-5,-5v-12a5,5,0,0,1,5,-5z"></path><g id="node_text29" fill="black"><text id="kity_text_213" text-rendering="inherit" font-size="12" dy=".8em" y="1271.7000000476837" x="548.5">PPI</text></g></g><g id="minder_node32"><g id="node_expander29" display="none" style="cursor: pointer;"><path id="kity_path_435" fill="white" stroke="gray" d="M538.5,1331.5A6,6,0,1,1,526.5,1331.5A6,6,0,1,1,538.5,1331.5"></path><path id="kity_path_436" fill="none" stroke="gray"></path></g><path id="node_outline30" fill="none" stroke="none" d="M543.5,1320.5h43a5,5,0,0,1,5,5v12a5,5,0,0,1,-5,5h-43a5,5,0,0,1,-5,-5v-12a5,5,0,0,1,5,-5z"></path><g id="node_text30" fill="black"><text id="kity_text_215" text-rendering="inherit" font-size="12" dy=".8em" y="1323.7000000476837" x="548.5">B显示</text></g></g><g id="minder_node33"><g id="node_expander30" display="none" style="cursor: pointer;"><path id="kity_path_438" fill="white" stroke="gray" d="M538.5,1383.5A6,6,0,1,1,526.5,1383.5A6,6,0,1,1,538.5,1383.5"></path><path id="kity_path_439" fill="none" stroke="gray"></path></g><path id="node_outline31" fill="none" stroke="none" d="M543.5,1372.5h33a5,5,0,0,1,5,5v12a5,5,0,0,1,-5,5h-33a5,5,0,0,1,-5,-5v-12a5,5,0,0,1,5,-5z"></path><g id="node_text31" fill="black"><text id="kity_text_217" text-rendering="inherit" font-size="12" dy=".8em" y="1375.7000000476837" x="548.5">A/R</text></g></g><g id="minder_node34"><g id="node_expander32" display="none" style="cursor: pointer;"><path id="kity_path_444" fill="white" stroke="gray" d="M453.5,1435.5A6,6,0,1,1,441.5,1435.5A6,6,0,1,1,453.5,1435.5"></path><path id="kity_path_445" fill="none" stroke="gray"></path></g><path id="node_outline33" fill="none" stroke="none" d="M458.5,1424.5h72a5,5,0,0,1,5,5v12a5,5,0,0,1,-5,5h-72a5,5,0,0,1,-5,-5v-12a5,5,0,0,1,5,-5z"></path><g id="node_text33" fill="black"><text id="kity_text_221" text-rendering="inherit" font-size="12" dy=".8em" y="1427.7000000476837" x="463.5">抗干扰措施</text></g></g><g id="minder_node35"><g id="node_expander40" style="cursor: pointer;"><path id="kity_path_468" fill="white" stroke="gray" d="M453.5,1643.5A6,6,0,1,1,441.5,1643.5A6,6,0,1,1,453.5,1643.5"></path><path id="kity_path_469" fill="none" stroke="gray" d="M443,1643.5L452,1643.5"></path></g><path id="node_outline41" fill="none" stroke="none" d="M458.5,1632.5h96a5,5,0,0,1,5,5v12a5,5,0,0,1,-5,5h-96a5,5,0,0,1,-5,-5v-12a5,5,0,0,1,5,-5z"></path><g id="node_text41" fill="black"><text id="kity_text_237" text-rendering="inherit" font-size="12" dy=".8em" y="1635.7000000476837" x="463.5">波形发生器模型</text></g></g><g id="minder_node36"><g id="node_expander33" display="none" style="cursor: pointer;"><path id="kity_path_447" fill="white" stroke="gray" d="M599.5,1487.5A6,6,0,1,1,587.5,1487.5A6,6,0,1,1,599.5,1487.5"></path><path id="kity_path_448" fill="none" stroke="gray"></path></g><path id="node_outline34" fill="none" stroke="none" d="M604.5,1476.5h59a5,5,0,0,1,5,5v12a5,5,0,0,1,-5,5h-59a5,5,0,0,1,-5,-5v-12a5,5,0,0,1,5,-5z"></path><g id="node_text34" fill="black"><text id="kity_text_223" text-rendering="inherit" font-size="12" dy=".8em" y="1479.7000000476837" x="609.5">脉内调制</text></g></g><g id="minder_node37"><g id="node_expander34" display="none" style="cursor: pointer;"><path id="kity_path_450" fill="white" stroke="gray" d="M599.5,1539.5A6,6,0,1,1,587.5,1539.5A6,6,0,1,1,599.5,1539.5"></path><path id="kity_path_451" fill="none" stroke="gray"></path></g><path id="node_outline35" fill="none" stroke="none" d="M604.5,1528.5h59a5,5,0,0,1,5,5v12a5,5,0,0,1,-5,5h-59a5,5,0,0,1,-5,-5v-12a5,5,0,0,1,5,-5z"></path><g id="node_text35" fill="black"><text id="kity_text_225" text-rendering="inherit" font-size="12" dy=".8em" y="1531.7000000476837" x="609.5">脉间调制</text></g></g><g id="minder_node38"><g id="node_expander35" display="none" style="cursor: pointer;"><path id="kity_path_453" fill="white" stroke="gray" d="M599.5,1591.5A6,6,0,1,1,587.5,1591.5A6,6,0,1,1,599.5,1591.5"></path><path id="kity_path_454" fill="none" stroke="gray"></path></g><path id="node_outline36" fill="none" stroke="none" d="M604.5,1580.5h59a5,5,0,0,1,5,5v12a5,5,0,0,1,-5,5h-59a5,5,0,0,1,-5,-5v-12a5,5,0,0,1,5,-5z"></path><g id="node_text36" fill="black"><text id="kity_text_227" text-rendering="inherit" font-size="12" dy=".8em" y="1583.7000000476837" x="609.5">直接调制</text></g></g><g id="minder_node39"><g id="node_expander36" display="none" style="cursor: pointer;"><path id="kity_path_456" fill="white" stroke="gray" d="M599.5,1643.5A6,6,0,1,1,587.5,1643.5A6,6,0,1,1,599.5,1643.5"></path><path id="kity_path_457" fill="none" stroke="gray"></path></g><path id="node_outline37" fill="none" stroke="none" d="M604.5,1632.5h59a5,5,0,0,1,5,5v12a5,5,0,0,1,-5,5h-59a5,5,0,0,1,-5,-5v-12a5,5,0,0,1,5,-5z"></path><g id="node_text37" fill="black"><text id="kity_text_229" text-rendering="inherit" font-size="12" dy=".8em" y="1635.7000000476837" x="609.5">相位调制</text></g></g><g id="minder_node40"><g id="node_expander37" display="none" style="cursor: pointer;"><path id="kity_path_459" fill="white" stroke="gray" d="M599.5,1695.5A6,6,0,1,1,587.5,1695.5A6,6,0,1,1,599.5,1695.5"></path><path id="kity_path_460" fill="none" stroke="gray"></path></g><path id="node_outline38" fill="none" stroke="none" d="M604.5,1684.5h60a5,5,0,0,1,5,5v12a5,5,0,0,1,-5,5h-60a5,5,0,0,1,-5,-5v-12a5,5,0,0,1,5,-5z"></path><g id="node_text38" fill="black"><text id="kity_text_231" text-rendering="inherit" font-size="12" dy=".8em" y="1687.7000000476837" x="609.5">频率跳变</text></g></g><g id="minder_node41"><g id="node_expander38" display="none" style="cursor: pointer;"><path id="kity_path_462" fill="white" stroke="gray" d="M599.5,1747.5A6,6,0,1,1,587.5,1747.5A6,6,0,1,1,599.5,1747.5"></path><path id="kity_path_463" fill="none" stroke="gray"></path></g><path id="node_outline39" fill="none" stroke="none" d="M604.5,1736.5h60a5,5,0,0,1,5,5v12a5,5,0,0,1,-5,5h-60a5,5,0,0,1,-5,-5v-12a5,5,0,0,1,5,-5z"></path><g id="node_text39" fill="black"><text id="kity_text_233" text-rendering="inherit" font-size="12" dy=".8em" y="1739.7000000476837" x="609.5">线性调频</text></g></g><g id="minder_node42"><g id="node_expander39" display="none" style="cursor: pointer;"><path id="kity_path_465" fill="white" stroke="gray" d="M599.5,1799.5A6,6,0,1,1,587.5,1799.5A6,6,0,1,1,599.5,1799.5"></path><path id="kity_path_466" fill="none" stroke="gray"></path></g><path id="node_outline40" fill="none" stroke="none" d="M604.5,1788.5h72a5,5,0,0,1,5,5v12a5,5,0,0,1,-5,5h-72a5,5,0,0,1,-5,-5v-12a5,5,0,0,1,5,-5z"></path><g id="node_text40" fill="black"><text id="kity_text_235" text-rendering="inherit" font-size="12" dy=".8em" y="1791.7000000476837" x="609.5">非线性调频</text></g></g><g id="minder_node43"><g id="node_expander58" style="cursor: pointer;"><path id="kity_path_522" fill="white" stroke="gray" d="M315.5,2186.5A6,6,0,1,1,303.5,2186.5A6,6,0,1,1,315.5,2186.5"></path><path id="kity_path_523" fill="none" stroke="gray" d="M305,2186.5L314,2186.5"></path></g><path id="node_outline59" fill="rgb(246, 238, 242)" stroke="rgb(191, 115, 148)" d="M319.5,2173.5h133a3,3,0,0,1,3,3v20a3,3,0,0,1,-3,3h-133a3,3,0,0,1,-3,-3v-20a3,3,0,0,1,3,-3z" stroke-width="1"></path><g id="node_text59" fill="black"><text id="kity_text_273" text-rendering="inherit" font-size="14" dy=".8em" y="2177.4000000953674" x="336.5">雷达目标与环境</text></g></g><g id="minder_node44"><g id="node_expander47" style="cursor: pointer;"><path id="kity_path_489" fill="white" stroke="gray" d="M495.5,1965.5A6,6,0,1,1,483.5,1965.5A6,6,0,1,1,495.5,1965.5"></path><path id="kity_path_490" fill="none" stroke="gray" d="M485,1965.5L494,1965.5"></path></g><path id="node_outline48" fill="none" stroke="none" d="M500.5,1954.5h59a5,5,0,0,1,5,5v12a5,5,0,0,1,-5,5h-59a5,5,0,0,1,-5,-5v-12a5,5,0,0,1,5,-5z"></path><g id="node_text48" fill="black"><text id="kity_text_251" text-rendering="inherit" font-size="12" dy=".8em" y="1957.7000000476837" x="505.5">目标特性</text></g></g><g id="minder_node45"><g id="node_expander42" display="none" style="cursor: pointer;"><path id="kity_path_474" fill="white" stroke="gray" d="M604.5,1861.5A6,6,0,1,1,592.5,1861.5A6,6,0,1,1,604.5,1861.5"></path><path id="kity_path_475" fill="none" stroke="gray"></path></g><path id="node_outline43" fill="none" stroke="none" d="M609.5,1850.5h59a5,5,0,0,1,5,5v12a5,5,0,0,1,-5,5h-59a5,5,0,0,1,-5,-5v-12a5,5,0,0,1,5,-5z"></path><g id="node_text43" fill="black"><text id="kity_text_241" text-rendering="inherit" font-size="12" dy=".8em" y="1853.7000000476837" x="614.5">动机目标</text></g></g><g id="minder_node46"><g id="node_expander43" display="none" style="cursor: pointer;"><path id="kity_path_477" fill="white" stroke="gray" d="M604.5,1913.5A6,6,0,1,1,592.5,1913.5A6,6,0,1,1,604.5,1913.5"></path><path id="kity_path_478" fill="none" stroke="gray"></path></g><path id="node_outline44" fill="none" stroke="none" d="M609.5,1902.5h60a5,5,0,0,1,5,5v12a5,5,0,0,1,-5,5h-60a5,5,0,0,1,-5,-5v-12a5,5,0,0,1,5,-5z"></path><g id="node_text44" fill="black"><text id="kity_text_243" text-rendering="inherit" font-size="12" dy=".8em" y="1905.7000000476837" x="614.5">轨道目标</text></g></g><g id="minder_node47"><g id="node_expander44" display="none" style="cursor: pointer;"><path id="kity_path_480" fill="white" stroke="gray" d="M604.5,1965.5A6,6,0,1,1,592.5,1965.5A6,6,0,1,1,604.5,1965.5"></path><path id="kity_path_481" fill="none" stroke="gray"></path></g><path id="node_outline45" fill="none" stroke="none" d="M609.5,1954.5h83a5,5,0,0,1,5,5v12a5,5,0,0,1,-5,5h-83a5,5,0,0,1,-5,-5v-12a5,5,0,0,1,5,-5z"></path><g id="node_text45" fill="black"><text id="kity_text_245" text-rendering="inherit" font-size="12" dy=".8em" y="1957.7000000476837" x="614.5">目标起伏特性</text></g></g><g id="minder_node48"><g id="node_expander45" display="none" style="cursor: pointer;"><path id="kity_path_483" fill="white" stroke="gray" d="M604.5,2017.5A6,6,0,1,1,592.5,2017.5A6,6,0,1,1,604.5,2017.5"></path><path id="kity_path_484" fill="none" stroke="gray"></path></g><path id="node_outline46" fill="none" stroke="none" d="M609.5,2006.5h71a5,5,0,0,1,5,5v12a5,5,0,0,1,-5,5h-71a5,5,0,0,1,-5,-5v-12a5,5,0,0,1,5,-5z"></path><g id="node_text46" fill="black"><text id="kity_text_247" text-rendering="inherit" font-size="12" dy=".8em" y="2009.7000000476837" x="614.5">雷达截面积</text></g></g><g id="minder_node49"><g id="node_expander46" display="none" style="cursor: pointer;"><path id="kity_path_486" fill="white" stroke="gray" d="M604.5,2069.5A6,6,0,1,1,592.5,2069.5A6,6,0,1,1,604.5,2069.5"></path><path id="kity_path_487" fill="none" stroke="gray"></path></g><path id="node_outline47" fill="none" stroke="none" d="M609.5,2058.5h47a5,5,0,0,1,5,5v12a5,5,0,0,1,-5,5h-47a5,5,0,0,1,-5,-5v-12a5,5,0,0,1,5,-5z"></path><g id="node_text47" fill="black"><text id="kity_text_249" text-rendering="inherit" font-size="12" dy=".8em" y="2061.7000000476837" x="614.5">多目标</text></g></g><g id="minder_node50"><g id="node_expander52" style="cursor: pointer;"><path id="kity_path_504" fill="white" stroke="gray" d="M495.5,2199.5A6,6,0,1,1,483.5,2199.5A6,6,0,1,1,495.5,2199.5"></path><path id="kity_path_505" fill="none" stroke="gray" d="M485,2199.5L494,2199.5"></path></g><path id="node_outline53" fill="none" stroke="none" d="M500.5,2188.5h84a5,5,0,0,1,5,5v12a5,5,0,0,1,-5,5h-84a5,5,0,0,1,-5,-5v-12a5,5,0,0,1,5,-5z"></path><g id="node_text53" fill="black"><text id="kity_text_261" text-rendering="inherit" font-size="12" dy=".8em" y="2191.7000000476837" x="505.5">杂波环境特性</text></g></g><g id="minder_node51"><g id="node_expander48" display="none" style="cursor: pointer;"><path id="kity_path_492" fill="white" stroke="gray" d="M629.5,2121.5A6,6,0,1,1,617.5,2121.5A6,6,0,1,1,629.5,2121.5"></path><path id="kity_path_493" fill="none" stroke="gray"></path></g><path id="node_outline49" fill="none" stroke="none" d="M634.5,2110.5h48a5,5,0,0,1,5,5v12a5,5,0,0,1,-5,5h-48a5,5,0,0,1,-5,-5v-12a5,5,0,0,1,5,-5z"></path><g id="node_text49" fill="black"><text id="kity_text_253" text-rendering="inherit" font-size="12" dy=".8em" y="2113.7000000476837" x="639.5">地杂波</text></g></g><g id="minder_node52"><g id="node_expander49" display="none" style="cursor: pointer;"><path id="kity_path_495" fill="white" stroke="gray" d="M629.5,2173.5A6,6,0,1,1,617.5,2173.5A6,6,0,1,1,629.5,2173.5"></path><path id="kity_path_496" fill="none" stroke="gray"></path></g><path id="node_outline50" fill="none" stroke="none" d="M634.5,2162.5h48a5,5,0,0,1,5,5v12a5,5,0,0,1,-5,5h-48a5,5,0,0,1,-5,-5v-12a5,5,0,0,1,5,-5z"></path><g id="node_text50" fill="black"><text id="kity_text_255" text-rendering="inherit" font-size="12" dy=".8em" y="2165.7000000476837" x="639.5">海杂波</text></g></g><g id="minder_node53"><g id="node_expander50" display="none" style="cursor: pointer;"><path id="kity_path_498" fill="white" stroke="gray" d="M629.5,2225.5A6,6,0,1,1,617.5,2225.5A6,6,0,1,1,629.5,2225.5"></path><path id="kity_path_499" fill="none" stroke="gray"></path></g><path id="node_outline51" fill="none" stroke="none" d="M634.5,2214.5h60a5,5,0,0,1,5,5v12a5,5,0,0,1,-5,5h-60a5,5,0,0,1,-5,-5v-12a5,5,0,0,1,5,-5z"></path><g id="node_text51" fill="black"><text id="kity_text_257" text-rendering="inherit" font-size="12" dy=".8em" y="2217.7000000476837" x="639.5">气象杂波</text></g></g><g id="minder_node54"><g id="node_expander51" display="none" style="cursor: pointer;"><path id="kity_path_501" fill="white" stroke="gray" d="M629.5,2277.5A6,6,0,1,1,617.5,2277.5A6,6,0,1,1,629.5,2277.5"></path><path id="kity_path_502" fill="none" stroke="gray"></path></g><path id="node_outline52" fill="none" stroke="none" d="M634.5,2266.5h71a5,5,0,0,1,5,5v12a5,5,0,0,1,-5,5h-71a5,5,0,0,1,-5,-5v-12a5,5,0,0,1,5,-5z"></path><g id="node_text52" fill="black"><text id="kity_text_259" text-rendering="inherit" font-size="12" dy=".8em" y="2269.7000000476837" x="639.5">电离层色散</text></g></g><g id="minder_node55"><g id="node_expander57" style="cursor: pointer;"><path id="kity_path_519" fill="white" stroke="gray" d="M495.5,2407.5A6,6,0,1,1,483.5,2407.5A6,6,0,1,1,495.5,2407.5"></path><path id="kity_path_520" fill="none" stroke="gray" d="M485,2407.5L494,2407.5"></path></g><path id="node_outline58" fill="none" stroke="none" d="M500.5,2396.5h60a5,5,0,0,1,5,5v12a5,5,0,0,1,-5,5h-60a5,5,0,0,1,-5,-5v-12a5,5,0,0,1,5,-5z"></path><g id="node_text58" fill="black"><text id="kity_text_271" text-rendering="inherit" font-size="12" dy=".8em" y="2399.7000000476837" x="505.5">干扰环境</text></g></g><g id="minder_node56"><g id="node_expander53" display="none" style="cursor: pointer;"><path id="kity_path_507" fill="white" stroke="gray" d="M605.5,2329.5A6,6,0,1,1,593.5,2329.5A6,6,0,1,1,605.5,2329.5"></path><path id="kity_path_508" fill="none" stroke="gray"></path></g><path id="node_outline54" fill="none" stroke="none" d="M610.5,2318.5h84a5,5,0,0,1,5,5v12a5,5,0,0,1,-5,5h-84a5,5,0,0,1,-5,-5v-12a5,5,0,0,1,5,-5z"></path><g id="node_text54" fill="black"><text id="kity_text_263" text-rendering="inherit" font-size="12" dy=".8em" y="2321.7000000476837" x="615.5">有源噪声干扰</text></g></g><g id="minder_node57"><g id="node_expander54" display="none" style="cursor: pointer;"><path id="kity_path_510" fill="white" stroke="gray" d="M605.5,2381.5A6,6,0,1,1,593.5,2381.5A6,6,0,1,1,605.5,2381.5"></path><path id="kity_path_511" fill="none" stroke="gray"></path></g><path id="node_outline55" fill="none" stroke="none" d="M610.5,2370.5h84a5,5,0,0,1,5,5v12a5,5,0,0,1,-5,5h-84a5,5,0,0,1,-5,-5v-12a5,5,0,0,1,5,-5z"></path><g id="node_text55" fill="black"><text id="kity_text_265" text-rendering="inherit" font-size="12" dy=".8em" y="2373.7000000476837" x="615.5">有源欺骗干扰</text></g></g><g id="minder_node58"><g id="node_expander55" display="none" style="cursor: pointer;"><path id="kity_path_513" fill="white" stroke="gray" d="M605.5,2433.5A6,6,0,1,1,593.5,2433.5A6,6,0,1,1,605.5,2433.5"></path><path id="kity_path_514" fill="none" stroke="gray"></path></g><path id="node_outline56" fill="none" stroke="none" d="M610.5,2422.5h60a5,5,0,0,1,5,5v12a5,5,0,0,1,-5,5h-60a5,5,0,0,1,-5,-5v-12a5,5,0,0,1,5,-5z"></path><g id="node_text56" fill="black"><text id="kity_text_267" text-rendering="inherit" font-size="12" dy=".8em" y="2425.7000000476837" x="615.5">箔条干扰</text></g></g><g id="minder_node59"><g id="node_expander56" display="none" style="cursor: pointer;"><path id="kity_path_516" fill="white" stroke="gray" d="M605.5,2485.5A6,6,0,1,1,593.5,2485.5A6,6,0,1,1,605.5,2485.5"></path><path id="kity_path_517" fill="none" stroke="gray"></path></g><path id="node_outline57" fill="none" stroke="none" d="M610.5,2474.5h84a5,5,0,0,1,5,5v12a5,5,0,0,1,-5,5h-84a5,5,0,0,1,-5,-5v-12a5,5,0,0,1,5,-5z"></path><g id="node_text57" fill="black"><text id="kity_text_269" text-rendering="inherit" font-size="12" dy=".8em" y="2477.7000000476837" x="615.5">角反射器干扰</text></g></g><g id="minder_node60"><g id="node_expander64" style="cursor: pointer;"><path id="kity_path_540" fill="white" stroke="gray" d="M315.5,2651.5A6,6,0,1,1,303.5,2651.5A6,6,0,1,1,315.5,2651.5"></path><path id="kity_path_541" fill="none" stroke="gray" d="M305,2651.5L314,2651.5"></path></g><path id="node_outline65" fill="rgb(246, 238, 242)" stroke="rgb(191, 115, 148)" d="M319.5,2638.5h119a3,3,0,0,1,3,3v20a3,3,0,0,1,-3,3h-119a3,3,0,0,1,-3,-3v-20a3,3,0,0,1,3,-3z" stroke-width="1"></path><g id="node_text65" fill="black"><text id="kity_text_285" text-rendering="inherit" font-size="14" dy=".8em" y="2642.4000000953674" x="336.5">雷达关联系统</text></g></g><g id="minder_node61"><g id="node_expander59" display="none" style="cursor: pointer;"><path id="kity_path_525" fill="white" stroke="gray" d="M481.5,2547.5A6,6,0,1,1,469.5,2547.5A6,6,0,1,1,481.5,2547.5"></path><path id="kity_path_526" fill="none" stroke="gray"></path></g><path id="node_outline60" fill="none" stroke="none" d="M486.5,2536.5h251a5,5,0,0,1,5,5v12a5,5,0,0,1,-5,5h-251a5,5,0,0,1,-5,-5v-12a5,5,0,0,1,5,-5z"></path><g id="node_text60" fill="black"><text id="kity_text_275" text-rendering="inherit" font-size="12" dy=".8em" y="2539.7000000476837" x="491.5">在整个仿真系统中与其他电子设备的连接关系</text></g></g><g id="minder_node62"><g id="node_expander60" display="none" style="cursor: pointer;"><path id="kity_path_528" fill="white" stroke="gray" d="M481.5,2599.5A6,6,0,1,1,469.5,2599.5A6,6,0,1,1,481.5,2599.5"></path><path id="kity_path_529" fill="none" stroke="gray"></path></g><path id="node_outline61" fill="none" stroke="none" d="M486.5,2588.5h36a5,5,0,0,1,5,5v12a5,5,0,0,1,-5,5h-36a5,5,0,0,1,-5,-5v-12a5,5,0,0,1,5,-5z"></path><g id="node_text61" fill="black"><text id="kity_text_277" text-rendering="inherit" font-size="12" dy=".8em" y="2591.7000000476837" x="491.5">导航</text></g></g><g id="minder_node63"><g id="node_expander61" display="none" style="cursor: pointer;"><path id="kity_path_531" fill="white" stroke="gray" d="M481.5,2651.5A6,6,0,1,1,469.5,2651.5A6,6,0,1,1,481.5,2651.5"></path><path id="kity_path_532" fill="none" stroke="gray"></path></g><path id="node_outline62" fill="none" stroke="none" d="M486.5,2640.5h36a5,5,0,0,1,5,5v12a5,5,0,0,1,-5,5h-36a5,5,0,0,1,-5,-5v-12a5,5,0,0,1,5,-5z"></path><g id="node_text62" fill="black"><text id="kity_text_279" text-rendering="inherit" font-size="12" dy=".8em" y="2643.7000000476837" x="491.5">通讯</text></g></g><g id="minder_node64"><g id="node_expander62" display="none" style="cursor: pointer;"><path id="kity_path_534" fill="white" stroke="gray" d="M481.5,2703.5A6,6,0,1,1,469.5,2703.5A6,6,0,1,1,481.5,2703.5"></path><path id="kity_path_535" fill="none" stroke="gray"></path></g><path id="node_outline63" fill="none" stroke="none" d="M486.5,2692.5h58a5,5,0,0,1,5,5v12a5,5,0,0,1,-5,5h-58a5,5,0,0,1,-5,-5v-12a5,5,0,0,1,5,-5z"></path><g id="node_text63" fill="black"><text id="kity_text_281" text-rendering="inherit" font-size="12" dy=".8em" y="2695.7000000476837" x="491.5">敌我识别</text></g></g><g id="minder_node65"><g id="node_expander63" display="none" style="cursor: pointer;"><path id="kity_path_537" fill="white" stroke="gray" d="M481.5,2755.5A6,6,0,1,1,469.5,2755.5A6,6,0,1,1,481.5,2755.5"></path><path id="kity_path_538" fill="none" stroke="gray"></path></g><path id="node_outline64" fill="none" stroke="none" d="M486.5,2744.5h35a5,5,0,0,1,5,5v12a5,5,0,0,1,-5,5h-35a5,5,0,0,1,-5,-5v-12a5,5,0,0,1,5,-5z"></path><g id="node_text64" fill="black"><text id="kity_text_283" text-rendering="inherit" font-size="12" dy=".8em" y="2747.7000000476837" x="491.5">火控</text></g></g></g></g></svg>